<svg xmlns="http://www.w3.org/2000/svg" viewBox="0 0 16.1 19.5"><defs><style>.cls-1{fill:none;stroke:#a0c3e1;stroke-linejoin:round;stroke-width:1.5px;}</style></defs><g id="Layer_2" data-name="Layer 2"><g id="Layer_1-2" data-name="Layer 1"><path class="cls-1" d="M6.05,3.75v-1a2,2,0,0,1,2-2h0a2,2,0,0,1,2,2v1m0,12.5h3.43a1.86,1.86,0,0,0,1.41-3.08l-.71-.82A4.9,4.9,0,0,1,13,8.65h0a4.91,4.91,0,0,0-4.89-5.4H8a4.91,4.91,0,0,0-4.88,5.4h0a4.94,4.94,0,0,1-1.17,3.7l-.71.82a1.86,1.86,0,0,0,1.4,3.08H6.05m4,0v.5a2,2,0,0,1-2,2h0a2,2,0,0,1-2-2v-.5m4,0h-4"/></g></g></svg>