<svg xmlns="http://www.w3.org/2000/svg" viewBox="0 0 17.88 19.45"><defs><style>.cls-1{fill:none;stroke:#a0c3e1;stroke-linejoin:round;stroke-width:1.5px;}</style></defs><g id="Layer_2" data-name="Layer 2"><g id="Layer_1-2" data-name="Layer 1"><path class="cls-1" d="M2.17,10.78c-.84-.13-1.25-.19-1.37-.42a.64.64,0,0,1-.05-.23c0-.26.35-.5,1.05-1L12.6,1.73C13.65,1,14.17.65,14.44.78a.52.52,0,0,1,.19.17c.16.25-.13.81-.72,1.94L11.56,7.35c-.22.42-.33.63-.28.81a.51.51,0,0,0,.07.17c.11.16.34.21.8.32l3.65.85c.8.18,1.19.28,1.29.51a.49.49,0,0,1,0,.23c0,.26-.37.47-1.07.9L5.14,17.84c-1,.65-1.57,1-1.83.83a.62.62,0,0,1-.18-.18c-.15-.25.15-.79.75-1.86l2.27-4c.26-.45.38-.68.33-.87a.42.42,0,0,0-.08-.18c-.12-.16-.38-.2-.9-.28Z"/></g></g></svg>