<svg xmlns="http://www.w3.org/2000/svg" viewBox="0 0 15.5 19.5"><defs><style>.cls-1{fill:none;stroke:#a0c3e1;stroke-linecap:round;stroke-linejoin:round;stroke-width:1.5px;}</style></defs><g id="Layer_2" data-name="Layer 2"><g id="Layer_1-2" data-name="Layer 1"><path class="cls-1" d="M.75,16.75V8c0-3,0-4.5.76-5.55a4.17,4.17,0,0,1,.89-.89C3.45.75,5,.75,8,.75h5c.75,0,1.12,0,1.39.19a1.15,1.15,0,0,1,.22.22c.19.27.19.64.19,1.39v14.2m-10-12h6m-6,3h4m-6.5,11h11a2.34,2.34,0,0,0,.88-.08,1,1,0,0,0,.54-.54,2.34,2.34,0,0,0,.08-.88h0a2.34,2.34,0,0,0-.08-.88,1,1,0,0,0-.54-.54,2.34,2.34,0,0,0-.88-.08h-11a1.5,1.5,0,0,0-1.5,1.5h0A1.5,1.5,0,0,0,2.25,18.75Z"/></g></g></svg>