<svg xmlns="http://www.w3.org/2000/svg" viewBox="0 0 19.5 19.5"><defs><style>.cls-1{fill:none;stroke:#a0c3e1;stroke-linejoin:round;stroke-width:1.5px;}</style></defs><g id="Layer_2" data-name="Layer 2"><g id="Layer_1-2" data-name="Layer 1"><path class="cls-1" d="M6.75,13.75h0c0,1.87,0,2.8.4,3.5a3.05,3.05,0,0,0,1.1,1.1c.7.4,1.63.4,3.5.4h1.6c2.25,0,3.37,0,4.16-.57a3,3,0,0,0,.67-.67c.57-.79.57-1.91.57-4.16v-2.2c0-2.25,0-3.37-.57-4.16a3,3,0,0,0-.67-.67c-.79-.57-1.91-.57-4.16-.57h-.6m-5.4,8H6.15c-2.25,0-3.37,0-4.16-.57a3,3,0,0,1-.67-.67C.75,11.72.75,10.6.75,8.35V6.15c0-2.25,0-3.37.57-4.16A3,3,0,0,1,2,1.32C2.78.75,3.9.75,6.15.75h1.2c2.25,0,3.37,0,4.16.57a3,3,0,0,1,.67.67c.57.79.57,1.91.57,4.16v2.2c0,2.25,0,3.37-.57,4.16a3,3,0,0,1-.67.67C10.72,13.75,9.6,13.75,7.35,13.75Z"/></g></g></svg>