<svg xmlns="http://www.w3.org/2000/svg" viewBox="0 0 19.5 19.5"><defs><style>.cls-1{fill:none;stroke:#a0c3e1;stroke-linecap:round;stroke-linejoin:round;stroke-width:1.5px;}</style></defs><g id="Layer_2" data-name="Layer 2"><g id="Layer_1-2" data-name="Layer 1"><path class="cls-1" d="M.75,6.75h0a10,10,0,0,1,.3-3.52A4,4,0,0,1,3.23,1.05,10,10,0,0,1,6.74.75h0m12,6h0a10,10,0,0,0-.3-3.52,4,4,0,0,0-2.18-2.18,10,10,0,0,0-3.51-.3h0m-12,12h0a10,10,0,0,0,.3,3.52,4,4,0,0,0,2.18,2.18,10,10,0,0,0,3.51.3h0m12-6h0a10,10,0,0,1-.3,3.52,4,4,0,0,1-2.18,2.18,10,10,0,0,1-3.51.3h0"/></g></g></svg>