<svg xmlns="http://www.w3.org/2000/svg" viewBox="0 0 20.05 15.5"><defs><style>.cls-1{fill:none;stroke:#a0c3e1;stroke-linejoin:round;stroke-width:1.5px;}</style></defs><g id="Layer_2" data-name="Layer 2"><g id="Layer_1-2" data-name="Layer 1"><path class="cls-1" d="M10,.75c3.25,0,6.09,2.35,7.91,4.33a3.91,3.91,0,0,1,1.34,2.23,3.24,3.24,0,0,1,0,.88,3.91,3.91,0,0,1-1.34,2.23c-1.82,2-4.66,4.33-7.91,4.33s-6.08-2.35-7.9-4.33A3.85,3.85,0,0,1,.78,8.19a3.24,3.24,0,0,1,0-.88A3.85,3.85,0,0,1,2.12,5.08C3.94,3.1,6.78.75,10,.75Z"/><path class="cls-1" d="M13,7.75a3,3,0,1,1-3-3A3,3,0,0,1,13,7.75Z"/></g></g></svg>