<svg xmlns="http://www.w3.org/2000/svg" viewBox="0 0 19.5 19.5"><defs><style>.cls-1{fill:#a0c3e1;}.cls-2{fill:none;stroke:#a0c3e1;stroke-linecap:round;stroke-linejoin:round;stroke-width:1.5px;}</style></defs><g id="Layer_2" data-name="Layer 2"><g id="Layer_1-2" data-name="Layer 1"><path class="cls-1" d="M8.75,6.75a1.5,1.5,0,1,1-1.5-1.5A1.5,1.5,0,0,1,8.75,6.75Z"/><path class="cls-1" d="M13.75,6.75a1.5,1.5,0,1,1-1.5-1.5A1.5,1.5,0,0,1,13.75,6.75Z"/><path class="cls-2" d="M5.75,12.75h8m-6.5-1v2m5-2v2m-2.5-2v2m9-4a9,9,0,1,1-9-9A9,9,0,0,1,18.75,9.75Z"/></g></g></svg>