<svg xmlns="http://www.w3.org/2000/svg" viewBox="0 0 16.16 19.41"><defs><style>.cls-1{fill:none;stroke:#a0c3e1;stroke-linejoin:round;stroke-width:1.5px;}</style></defs><g id="Layer_2" data-name="Layer 2"><g id="Layer_1-2" data-name="Layer 1"><path class="cls-1" d="M10.08,11.75l3.48-5.47c1.37-2.15,2-3.23,1.79-4.1a1.93,1.93,0,0,0-.41-.74C14.35.75,13.07.75,10.52.75H5.64c-2.55,0-3.83,0-4.43.69a2.07,2.07,0,0,0-.41.74c-.26.87.43,1.95,1.8,4.1l3.48,5.47m4,0h-4m4,0V15c0,2,0,2.95-.37,3.32a1.27,1.27,0,0,1-1.07.34c-.51-.08-1.09-.87-2.25-2.46h0a2.21,2.21,0,0,1-.22-.34.81.81,0,0,1-.07-.22,2.07,2.07,0,0,1,0-.4V11.75"/></g></g></svg>