<svg xmlns="http://www.w3.org/2000/svg" viewBox="0 0 17.5 19.15"><defs><style>.cls-1{fill:none;stroke:#a0c3e1;stroke-linejoin:round;stroke-width:1.5px;}</style></defs><g id="Layer_2" data-name="Layer 2"><g id="Layer_1-2" data-name="Layer 1"><path class="cls-1" d="M7.54,1.18,2.24,3.83a3.28,3.28,0,0,0-1.17.75,1.34,1.34,0,0,0-.18.28A3.4,3.4,0,0,0,.75,6.24V12.9a3.48,3.48,0,0,0,.14,1.39,1.67,1.67,0,0,0,.18.28,3.28,3.28,0,0,0,1.17.75L7.54,18a3.46,3.46,0,0,0,1.07.42h.28A3.46,3.46,0,0,0,10,18l5.3-2.65a3.28,3.28,0,0,0,1.17-.75,1.67,1.67,0,0,0,.18-.28,3.48,3.48,0,0,0,.14-1.39V6.24a3.4,3.4,0,0,0-.14-1.38,1.34,1.34,0,0,0-.18-.28,3.28,3.28,0,0,0-1.17-.75L10,1.18A3,3,0,0,0,8.89.76a1.31,1.31,0,0,0-.28,0A3,3,0,0,0,7.54,1.18Z"/></g></g></svg>