<svg xmlns="http://www.w3.org/2000/svg" viewBox="0 0 19.5 19.43"><defs><style>.cls-1{fill:none;stroke:#a0c3e1;stroke-linejoin:round;stroke-width:1.5px;}</style></defs><g id="Layer_2" data-name="Layer 2"><g id="Layer_1-2" data-name="Layer 1"><path class="cls-1" d="M3.39,5C6,2.39,7.36,1.07,9,.81a5.1,5.1,0,0,1,1.56,0c1.61.26,2.93,1.58,5.58,4.23h0A10.3,10.3,0,0,1,18.2,7.48a6.51,6.51,0,0,1,.31.72,10.93,10.93,0,0,1,.24,3.21v4.27a3,3,0,0,1-3,3h0a3,3,0,0,1-3-3v-1a3,3,0,0,0-3-3h0a3,3,0,0,0-3,3v1a3,3,0,0,1-3,3h0a3,3,0,0,1-3-3V11.41A10.93,10.93,0,0,1,1,8.2c.09-.24.19-.49.3-.72A10.66,10.66,0,0,1,3.39,5Z"/></g></g></svg>