<svg xmlns="http://www.w3.org/2000/svg" viewBox="0 0 19.75 19.5"><defs><style>.cls-1{fill:none;stroke:#a0c3e1;stroke-linecap:round;stroke-linejoin:round;stroke-width:1.5px;}</style></defs><g id="Layer_2" data-name="Layer 2"><g id="Layer_1-2" data-name="Layer 1"><path class="cls-1" d="M7.75,5.75V.9A7.41,7.41,0,0,1,9.25.75a7.5,7.5,0,0,1,7.5,7.5h0a2.52,2.52,0,0,0,0,.46.42.42,0,0,0,0,.1,2,2,0,0,0,.22.34l1.51,2a2.79,2.79,0,0,1,.43.64.76.76,0,0,1-.46.91,2.6,2.6,0,0,1-.76.05h0a1.56,1.56,0,0,0-.44,0,.72.72,0,0,0-.53.53,1.56,1.56,0,0,0,0,.44V14.9c0,.56,0,.84-.14,1l-.17.17c-.2.14-.48.14-1,.14H14a1.9,1.9,0,0,0-.88.1.87.87,0,0,0-.27.27,1.9,1.9,0,0,0-.1.88h0a1.9,1.9,0,0,1-.1.88.87.87,0,0,1-.27.27,1.9,1.9,0,0,1-.88.1H9.1c-.56,0-.84,0-1-.14l-.17-.17c-.14-.2-.14-.48-.14-1V13.75m0-8v4m0-4h-4L2.46,4.46M7.75,9.75h-4m4,0v4m-4-4a1.5,1.5,0,1,1-1.5-1.5A1.5,1.5,0,0,1,3.75,9.75Zm4,4h-4L2.46,15m0-10.58a1,1,0,1,0-.71.29A1,1,0,0,0,2.46,4.46ZM2.46,15a1,1,0,1,0,.29.71A1,1,0,0,0,2.46,15ZM12.75,7.25a1.5,1.5,0,1,1-1.5-1.5A1.5,1.5,0,0,1,12.75,7.25Z"/></g></g></svg>