<svg xmlns="http://www.w3.org/2000/svg" viewBox="0 0 19.81 17"><defs><style>.cls-1{fill:none;stroke:#a0c3e1;stroke-linejoin:round;stroke-width:1.5px;}</style></defs><g id="Layer_2" data-name="Layer 2"><g id="Layer_1-2" data-name="Layer 1"><path class="cls-1" d="M7.91,14.22h0a1.5,1.5,0,0,0,1.41,2h6.62a8.25,8.25,0,0,0,1,0,2.49,2.49,0,0,0,2-2.94,6,6,0,0,0-.32-1h0c-.16-.42-.24-.64-.33-.82a4,4,0,0,0-3.17-2.21c-.21,0-.44,0-.89,0H12.09a3.51,3.51,0,0,0-.79.12l-.41.12h0M6.24,4.75a2,2,0,1,1,2-2A2,2,0,0,1,6.24,4.75Zm7.5,2a2,2,0,1,1,2-2A2,2,0,0,1,13.74,6.75Zm-9.87,7.5H8.44a8.25,8.25,0,0,0,1,0,2.49,2.49,0,0,0,2-2.94,6,6,0,0,0-.32-1h0c-.16-.42-.24-.64-.33-.82A4,4,0,0,0,7.69,7.27c-.21,0-.44,0-.89,0H5.51c-.45,0-.68,0-.89,0A4,4,0,0,0,1.45,9.48c-.09.18-.17.4-.33.82h0a7.18,7.18,0,0,0-.32,1,2.49,2.49,0,0,0,2,2.94A8.25,8.25,0,0,0,3.87,14.25Z"/></g></g></svg>