<svg xmlns="http://www.w3.org/2000/svg" viewBox="0 0 19.5 19.5"><defs><style>.cls-1{fill:none;stroke:#a0c3e1;stroke-linecap:round;stroke-linejoin:round;stroke-width:1.5px;}</style></defs><g id="Layer_2" data-name="Layer 2"><g id="Layer_1-2" data-name="Layer 1"><path class="cls-1" d="M8.25,2.25A1.5,1.5,0,0,1,9.75.75h0a1.5,1.5,0,0,1,1.5,1.5h0a1.5,1.5,0,0,1-1.5,1.5h0a1.5,1.5,0,0,1-1.5-1.5Z"/><path class="cls-1" d="M3.39,5.51a1.49,1.49,0,0,1,0-2.12h0a1.49,1.49,0,0,1,2.12,0h0a1.51,1.51,0,0,1,0,2.12h0a1.51,1.51,0,0,1-2.12,0Z"/><path class="cls-1" d="M8.25,17.25a1.5,1.5,0,0,1,1.5-1.5h0a1.5,1.5,0,0,1,1.5,1.5h0a1.5,1.5,0,0,1-1.5,1.5h0a1.5,1.5,0,0,1-1.5-1.5Z"/><path class="cls-1" d="M14,16.11A1.51,1.51,0,0,1,14,14h0a1.51,1.51,0,0,1,2.12,0h0a1.49,1.49,0,0,1,0,2.12h0a1.49,1.49,0,0,1-2.12,0Z"/><path class="cls-1" d="M.75,9.75a1.5,1.5,0,0,1,1.5-1.5h0a1.5,1.5,0,0,1,1.5,1.5h0a1.5,1.5,0,0,1-1.5,1.5h0a1.5,1.5,0,0,1-1.5-1.5Z"/><path class="cls-1" d="M3.39,16.11a1.49,1.49,0,0,1,0-2.12h0a1.51,1.51,0,0,1,2.12,0h0a1.51,1.51,0,0,1,0,2.12h0a1.49,1.49,0,0,1-2.12,0Z"/><path class="cls-1" d="M15.75,9.75a1.5,1.5,0,0,1,1.5-1.5h0a1.5,1.5,0,0,1,1.5,1.5h0a1.5,1.5,0,0,1-1.5,1.5h0a1.5,1.5,0,0,1-1.5-1.5Z"/><path class="cls-1" d="M14,5.51a1.51,1.51,0,0,1,0-2.12h0a1.49,1.49,0,0,1,2.12,0h0a1.49,1.49,0,0,1,0,2.12h0a1.51,1.51,0,0,1-2.12,0Z"/></g></g></svg>