<svg xmlns="http://www.w3.org/2000/svg" viewBox="0 0 19.5 17.5"><defs><style>.cls-1{fill:none;stroke:#d8e0eb;stroke-linecap:round;stroke-linejoin:round;stroke-width:1.5px;}</style></defs><g id="Layer_2" data-name="Layer 2"><g id="Layer_1-2" data-name="Layer 1"><path class="cls-1" d="M4.75,13.75h0a4,4,0,0,1-4-4V7.25c0-2.33,0-3.5.47-4.39A4.17,4.17,0,0,1,2.86,1.22C3.75.75,4.92.75,7.25.75h5c2.33,0,3.5,0,4.39.47a4.17,4.17,0,0,1,1.64,1.64c.47.89.47,2.06.47,4.39h0c0,2.33,0,3.5-.47,4.39a4.17,4.17,0,0,1-1.64,1.64c-.89.47-2.06.47-4.39.47H9.75"/><path class="cls-1" d="M4.75,13.75l-1,3,6-3"/></g></g></svg>