<svg xmlns="http://www.w3.org/2000/svg" viewBox="0 0 19.5 16.5"><defs><style>.cls-1{fill:none;stroke:#d8e0eb;stroke-linejoin:round;stroke-width:1.5px;}</style></defs><g id="Layer_2" data-name="Layer 2"><g id="Layer_1-2" data-name="Layer 1"><path class="cls-1" d="M.75,8.25c0-2.33,0-3.49.38-4.41A5,5,0,0,1,3.84,1.13C4.76.75,5.92.75,8.25.75h3c2.33,0,3.49,0,4.41.38a5,5,0,0,1,2.71,2.71c.38.92.38,2.08.38,4.41h0c0,2.33,0,3.49-.38,4.41a5,5,0,0,1-2.71,2.71c-.92.38-2.08.38-4.41.38h-3c-2.33,0-3.49,0-4.41-.38a5,5,0,0,1-2.71-2.71C.75,11.74.75,10.58.75,8.25Z"/><path class="cls-1" d="M.75,4.25,4.22,7C6.57,8.78,7.75,9.69,9.09,9.87a4.86,4.86,0,0,0,1.32,0c1.34-.18,2.52-1.09,4.87-2.92l3.47-2.7"/></g></g></svg>