<svg xmlns="http://www.w3.org/2000/svg" viewBox="0 0 11.5 19.5"><defs><style>.cls-1{fill:none;stroke:#d8e0eb;stroke-linejoin:round;stroke-width:1.5px;}</style></defs><g id="Layer_2" data-name="Layer 2"><g id="Layer_1-2" data-name="Layer 1"><path class="cls-1" d="M5.55,18.75H6c.75,0,1.12,0,1.39-.19a1.15,1.15,0,0,0,.22-.22c.19-.27.19-.64.19-1.39v-5.7H9a2.49,2.49,0,0,0,1.31-.17,1.15,1.15,0,0,0,.27-.27,2.49,2.49,0,0,0,.17-1.31,2.49,2.49,0,0,0-.17-1.31,1.15,1.15,0,0,0-.27-.27A2.49,2.49,0,0,0,9,7.75H7.75v-2a2.34,2.34,0,0,1,.08-.88,1,1,0,0,1,.54-.54,2.34,2.34,0,0,1,.88-.08,2.34,2.34,0,0,0,.88-.08,1,1,0,0,0,.54-.54,2.34,2.34,0,0,0,.08-.88V2.31a2.59,2.59,0,0,0-.09-1,1,1,0,0,0-.49-.49,2.59,2.59,0,0,0-1-.09,8.64,8.64,0,0,0-3.42.33A3.56,3.56,0,0,0,4.08,2.77a8.64,8.64,0,0,0-.33,3.42V7.75H2.5a2.49,2.49,0,0,0-1.31.17,1.15,1.15,0,0,0-.27.27A2.49,2.49,0,0,0,.75,9.5a2.49,2.49,0,0,0,.17,1.31,1.15,1.15,0,0,0,.27.27,2.49,2.49,0,0,0,1.31.17H3.75V17c0,.75,0,1.12.19,1.39a1.15,1.15,0,0,0,.22.22C4.43,18.75,4.8,18.75,5.55,18.75Z"/></g></g></svg>