<svg xmlns="http://www.w3.org/2000/svg" viewBox="0 0 15.5 19.5"><defs><style>.cls-1{fill:none;stroke:#d8e0eb;stroke-linecap:round;stroke-linejoin:round;stroke-width:1.5px;}</style></defs><g id="Layer_2" data-name="Layer 2"><g id="Layer_1-2" data-name="Layer 1"><path class="cls-1" d="M8.75.75H6.15C3.9.75,2.78.75,2,1.32A3,3,0,0,0,1.32,2C.75,2.78.75,3.9.75,6.15v7.2c0,2.25,0,3.37.57,4.16a3,3,0,0,0,.67.67c.79.57,1.91.57,4.16.57h3.2c2.25,0,3.37,0,4.16-.57a3,3,0,0,0,.67-.67c.57-.79.57-1.91.57-4.16V6.75m-6-6h0a2.41,2.41,0,0,1,1.71.71L14,5a2.41,2.41,0,0,1,.71,1.71h0m-6-6v.6c0,2.25,0,3.37.57,4.16a3,3,0,0,0,.67.67c.79.57,1.91.57,4.16.57h.6m-8.25,2A2.12,2.12,0,0,0,4.75,10.5,2.12,2.12,0,0,0,3,8.75,2.12,2.12,0,0,0,4.75,7,2.12,2.12,0,0,0,6.5,8.75Zm6,4.25A4.25,4.25,0,0,0,9,16.5,4.25,4.25,0,0,0,5.5,13,4.25,4.25,0,0,0,9,9.5,4.25,4.25,0,0,0,12.5,13Z"/></g></g></svg>