<svg xmlns="http://www.w3.org/2000/svg" viewBox="0 0 19.5 17.79"><defs><style>.cls-1{fill:none;stroke:#d8e0eb;stroke-linecap:round;stroke-linejoin:round;stroke-width:1.5px;}</style></defs><g id="Layer_2" data-name="Layer 2"><g id="Layer_1-2" data-name="Layer 1"><path class="cls-1" d="M15.91,6.12v5.41a3.32,3.32,0,0,1-.13,1.31,1.75,1.75,0,0,1-.16.27,3.39,3.39,0,0,1-1.08.77l-3.46,2a3.33,3.33,0,0,1-1.18.53H9.6a3.33,3.33,0,0,1-1.18-.53L5,13.88a3.39,3.39,0,0,1-1.08-.77,1.75,1.75,0,0,1-.16-.27,3.32,3.32,0,0,1-.13-1.31V6.12M18.75,4.74,10.88,1.12a3,3,0,0,0-1-.36,1.13,1.13,0,0,0-.26,0,3,3,0,0,0-1,.36L.75,4.74,8.57,8.53a3.45,3.45,0,0,0,1,.4h.28a3.45,3.45,0,0,0,1-.4Zm0,0V14a3.28,3.28,0,0,1-.1,1.14,2,2,0,0,1-.13.25,3,3,0,0,1-.85.77L16.5,17"/></g></g></svg>