<svg xmlns="http://www.w3.org/2000/svg" viewBox="0 0 19.5 19.5"><defs><style>.cls-1{fill:none;stroke:#d8e0eb;stroke-linejoin:round;stroke-width:1.5px;}</style></defs><g id="Layer_2" data-name="Layer 2"><g id="Layer_1-2" data-name="Layer 1"><path class="cls-1" d="M.75,1.75a1,1,0,0,1,1-1h5.5a1,1,0,0,1,1,1v5.5a1,1,0,0,1-1,1H1.75a1,1,0,0,1-1-1Z"/><path class="cls-1" d="M.75,12.25a1,1,0,0,1,1-1h5.5a1,1,0,0,1,1,1v5.5a1,1,0,0,1-1,1H1.75a1,1,0,0,1-1-1Z"/><path class="cls-1" d="M11.25,1.75a1,1,0,0,1,1-1h5.5a1,1,0,0,1,1,1v5.5a1,1,0,0,1-1,1h-5.5a1,1,0,0,1-1-1Z"/><path class="cls-1" d="M11.25,12.25a1,1,0,0,1,1-1h5.5a1,1,0,0,1,1,1v5.5a1,1,0,0,1-1,1h-5.5a1,1,0,0,1-1-1Z"/></g></g></svg>