<svg xmlns="http://www.w3.org/2000/svg" viewBox="0 0 19.5 19.5"><defs><style>.cls-1{fill:#d8e0eb;}.cls-2{fill:none;stroke:#d8e0eb;stroke-linejoin:round;stroke-width:1.5px;}</style></defs><g id="Layer_2" data-name="Layer 2"><g id="Layer_1-2" data-name="Layer 1"><path class="cls-1" d="M16.25,4.25a1,1,0,1,1-1-1A1,1,0,0,1,16.25,4.25Z"/><path class="cls-2" d="M.75,8c0-3,0-4.5.76-5.55a4.17,4.17,0,0,1,.89-.89C3.45.75,5,.75,8,.75h3.6c3,0,4.5,0,5.55.76A4.17,4.17,0,0,1,18,2.4c.76,1.05.76,2.55.76,5.55v3.6c0,3,0,4.5-.76,5.55a4.17,4.17,0,0,1-.89.89c-1.05.76-2.55.76-5.55.76H8c-3,0-4.5,0-5.55-.76a4.17,4.17,0,0,1-.89-.89C.75,16.05.75,14.55.75,11.55Z"/><path class="cls-2" d="M13.75,9.75a4,4,0,1,1-4-4A4,4,0,0,1,13.75,9.75Z"/></g></g></svg>