<svg xmlns="http://www.w3.org/2000/svg" viewBox="0 0 19.25 19.2"><defs><style>.cls-1{fill:none;stroke:#d8e0eb;stroke-linejoin:round;stroke-width:1.5px;}</style></defs><g id="Layer_2" data-name="Layer 2"><g id="Layer_1-2" data-name="Layer 1"><path class="cls-1" d="M3,7.6H3A5.83,5.83,0,0,0,1,8.74a1.5,1.5,0,0,0,0,1.72A5.51,5.51,0,0,0,3,11.6H3m0-4H3A5.51,5.51,0,0,1,1,6.46,1.5,1.5,0,0,1,1,4.74,5.83,5.83,0,0,1,3,3.6L8.51,1.11a3.17,3.17,0,0,1,1-.35,1,1,0,0,1,.25,0,3.17,3.17,0,0,1,1,.35L16.23,3.6a5.85,5.85,0,0,1,2,1.14,1.5,1.5,0,0,1,0,1.72,5.53,5.53,0,0,1-2,1.14h0M3,7.6l5.48,2.49a3,3,0,0,0,1,.36,1,1,0,0,0,.25,0,3,3,0,0,0,1-.36L16.23,7.6M3,11.6H3a5.83,5.83,0,0,0-2,1.14,1.5,1.5,0,0,0,0,1.72A5.51,5.51,0,0,0,3,15.6l5.48,2.49a3,3,0,0,0,1,.36,1,1,0,0,0,.25,0,3,3,0,0,0,1-.36l5.49-2.49a5.53,5.53,0,0,0,2-1.14,1.5,1.5,0,0,0,0-1.72,5.85,5.85,0,0,0-2-1.14h0M3,11.6l5.48,2.49a3,3,0,0,0,1,.36,1,1,0,0,0,.25,0,3,3,0,0,0,1-.36l5.49-2.49m0,0h0a5.53,5.53,0,0,0,2-1.14,1.5,1.5,0,0,0,0-1.72,5.85,5.85,0,0,0-2-1.14h0"/></g></g></svg>