<svg xmlns="http://www.w3.org/2000/svg" viewBox="0 0 15.4 11.75"><defs><style>.cls-1{fill:#d8e0eb;}</style></defs><g id="Layer_2" data-name="Layer 2"><g id="Layer_1-2" data-name="Layer 1"><path class="cls-1" d="M5.7,1.5A.76.76,0,0,0,6.45.75.76.76,0,0,0,5.7,0Zm-5.35,8a.75.75,0,0,0,1.44-.43Zm14.05-8a.76.76,0,0,0,.75-.75A.76.76,0,0,0,14.4,0Zm-5.35,8a.75.75,0,0,0,1.44-.43ZM.2,8.52a3.25,3.25,0,0,0,3.25,3.23v-1.5A1.75,1.75,0,0,1,1.7,8.52Zm5,0a1.75,1.75,0,0,1-1.75,1.73v1.5A3.25,3.25,0,0,0,6.7,8.52ZM3.45,6.79A1.75,1.75,0,0,1,5.2,8.52H6.7A3.25,3.25,0,0,0,3.45,5.29Zm0-1.5A3.25,3.25,0,0,0,.2,8.52H1.7A1.75,1.75,0,0,1,3.45,6.79ZM5.7,0A5.18,5.18,0,0,0,1.6,2.2,8.4,8.4,0,0,0,0,7.25H1.5A6.9,6.9,0,0,1,2.79,3.11,3.68,3.68,0,0,1,5.7,1.5ZM0,7.25A8,8,0,0,0,.35,9.49l1.44-.43A6.17,6.17,0,0,1,1.5,7.25ZM8.9,8.52a3.25,3.25,0,0,0,3.25,3.23v-1.5A1.75,1.75,0,0,1,10.4,8.52Zm5,0a1.75,1.75,0,0,1-1.75,1.73v1.5A3.25,3.25,0,0,0,15.4,8.52ZM12.15,6.79A1.75,1.75,0,0,1,13.9,8.52h1.5a3.25,3.25,0,0,0-3.25-3.23Zm0-1.5A3.25,3.25,0,0,0,8.9,8.52h1.5a1.75,1.75,0,0,1,1.75-1.73ZM14.4,0a5.18,5.18,0,0,0-4.1,2.2A8.4,8.4,0,0,0,8.7,7.25h1.5a6.9,6.9,0,0,1,1.29-4.14A3.68,3.68,0,0,1,14.4,1.5ZM8.7,7.25a8,8,0,0,0,.35,2.24l1.44-.43a6.17,6.17,0,0,1-.29-1.81Z"/></g></g></svg>