<svg xmlns="http://www.w3.org/2000/svg" viewBox="0 0 19.62 17.62"><defs><style>.cls-1{fill:none;stroke:#d8e0eb;stroke-linecap:round;stroke-linejoin:round;stroke-width:1.5px;}</style></defs><g id="Layer_2" data-name="Layer 2"><g id="Layer_1-2" data-name="Layer 1"><path class="cls-1" d="M1.42,3.62a4,4,0,0,1,.47-1.89A9.63,9.63,0,0,0,8.23,5.58c0-.11,0-.23,0-.35a4.23,4.23,0,0,1,6.22-3.69l.22.13a3,3,0,0,0,.86.44h.16a2.19,2.19,0,0,0,.69-.32l.5-.29c1-.58,1.53-.87,1.78-.72a.39.39,0,0,1,.18.18c.15.25-.15.76-.73,1.77L17,4.74h0a.89.89,0,0,0-.11.23s0,0,0,.06a1.66,1.66,0,0,0,0,.27h0c.77,7.2-4.18,11.57-9.56,11.57A9.4,9.4,0,0,1,.75,14.25a6.84,6.84,0,0,0,.79.05,6.62,6.62,0,0,0,4.31-1.61,3.52,3.52,0,0,1-3.24-2.61,3.6,3.6,0,0,0,.66.07A3.09,3.09,0,0,0,4.18,10,3.69,3.69,0,0,1,1.4,6.33v0A3.24,3.24,0,0,0,3,6.75,3.85,3.85,0,0,1,1.42,3.62Z"/></g></g></svg>