<svg xmlns="http://www.w3.org/2000/svg" viewBox="0 0 19.5 19.5"><defs><style>.cls-1{fill:none;stroke:#f8f8f6;stroke-linecap:round;stroke-linejoin:round;stroke-width:1.5px;}</style></defs><g id="Layer_2" data-name="Layer 2"><g id="Layer_1-2" data-name="Layer 1"><path class="cls-1" d="M6.75,2.75h0A12.85,12.85,0,0,0,5,2.81,5,5,0,0,0,.81,7,12.85,12.85,0,0,0,.75,8.75v2c0,2.8,0,4.2.54,5.27A5,5,0,0,0,3.48,18.2c1.07.55,2.47.55,5.27.55h2c2.8,0,4.2,0,5.27-.55A4.89,4.89,0,0,0,18.2,16c.55-1.07.55-2.47.55-5.27v-2A12.85,12.85,0,0,0,18.69,7a5,5,0,0,0-4.16-4.16,12.85,12.85,0,0,0-1.78-.06h0m-6,0v1.5m0-1.5v-2m0,2h6m0,0v-2m0,2v1.5"/></g></g></svg>