<svg xmlns="http://www.w3.org/2000/svg" viewBox="0 0 19.5 19.5"><defs><style>.cls-1{fill:none;stroke:#f8f8f6;stroke-linejoin:round;stroke-width:1.5px;}</style></defs><g id="Layer_2" data-name="Layer 2"><g id="Layer_1-2" data-name="Layer 1"><path class="cls-1" d="M18.75,11.55V8.19a7.69,7.69,0,0,0,0-.79A4,4,0,0,0,15.1,3.77a7.69,7.69,0,0,0-.79,0h-.23a.33.33,0,0,1-.33-.33A2.66,2.66,0,0,0,11.08.75H8.42A2.66,2.66,0,0,0,5.75,3.42a.33.33,0,0,1-.33.33H5.19a7.69,7.69,0,0,0-.79,0A4,4,0,0,0,.77,7.4a7.69,7.69,0,0,0,0,.79v3.36c0,3,0,4.5.76,5.55A4.17,4.17,0,0,0,2.4,18c1.05.76,2.55.76,5.55.76h3.6c3,0,4.5,0,5.55-.76A4.17,4.17,0,0,0,18,17.1C18.75,16.05,18.75,14.55,18.75,11.55Z"/><path class="cls-1" d="M6.75,10.75a3,3,0,0,1,3-3h0a3,3,0,0,1,3,3h0a3,3,0,0,1-3,3h0a3,3,0,0,1-3-3Z"/></g></g></svg>