<svg xmlns="http://www.w3.org/2000/svg" viewBox="0 0 17.5 15.5"><defs><style>.cls-1{fill:#f8f8f6;}</style></defs><g id="Layer_2" data-name="Layer 2"><g id="Layer_1-2" data-name="Layer 1"><path class="cls-1" d="M12.22,11.22a.75.75,0,0,0,1.06,1.06Zm4.53-3.47.53.53a.75.75,0,0,0,0-1.06ZM13.28,3.22a.75.75,0,1,0-1.06,1.06Zm-8,1.06A.75.75,0,1,0,4.22,3.22ZM.75,7.75.22,7.22a.75.75,0,0,0,0,1.06Zm3.47,4.53a.75.75,0,0,0,1.06-1.06ZM6,14.54a.76.76,0,0,0,.51.93A.75.75,0,0,0,7.47,15ZM11.47,1A.75.75,0,0,0,10,.54Zm1.81,11.32,4-4L16.22,7.22l-4,4Zm4-5.06-4-4L12.22,4.28l4,4Zm-13.06-4-4,4L1.28,8.28l4-4Zm-4,5.06,4,4,1.06-1.06-4-4ZM7.47,15l4-14L10,.54l-4,14Z"/></g></g></svg>