<svg xmlns="http://www.w3.org/2000/svg" viewBox="0 0 19.5 19.5"><defs><style>.cls-1{fill:#f8f8f6;}</style></defs><g id="Layer_2" data-name="Layer 2"><g id="Layer_1-2" data-name="Layer 1"><path class="cls-1" d="M8.75,6.75a1.5,1.5,0,1,1-1.5-1.5A1.5,1.5,0,0,1,8.75,6.75Z"/><path class="cls-1" d="M13.75,6.75a1.5,1.5,0,1,1-1.5-1.5A1.5,1.5,0,0,1,13.75,6.75Z"/><path class="cls-1" d="M18,9.75A8.25,8.25,0,0,1,9.75,18v1.5A9.76,9.76,0,0,0,19.5,9.75ZM9.75,18A8.25,8.25,0,0,1,1.5,9.75H0A9.76,9.76,0,0,0,9.75,19.5ZM1.5,9.75A8.25,8.25,0,0,1,9.75,1.5V0A9.76,9.76,0,0,0,0,9.75ZM9.75,1.5A8.25,8.25,0,0,1,18,9.75h1.5A9.76,9.76,0,0,0,9.75,0ZM12,12.75A2.25,2.25,0,0,1,9.75,15v1.5a3.75,3.75,0,0,0,3.75-3.75ZM9.75,15A2.25,2.25,0,0,1,7.5,12.75H6A3.75,3.75,0,0,0,9.75,16.5ZM7.5,12.75A2.25,2.25,0,0,1,9.75,10.5V9A3.75,3.75,0,0,0,6,12.75ZM9.75,10.5A2.25,2.25,0,0,1,12,12.75h1.5A3.75,3.75,0,0,0,9.75,9Z"/></g></g></svg>