<svg xmlns="http://www.w3.org/2000/svg" viewBox="0 0 18.43 19.5"><defs><style>.cls-1{fill:none;stroke:#f8f8f6;stroke-linecap:round;stroke-linejoin:round;stroke-width:1.5px;}</style></defs><g id="Layer_2" data-name="Layer 2"><g id="Layer_1-2" data-name="Layer 1"><path class="cls-1" d="M10.53,8,11,10.38c.2,1,.3,1.44.55,1.53a.52.52,0,0,0,.25,0c.27,0,.48-.48.89-1.36l.63-1.33c.13-.28.19-.41.3-.49l.12-.06a1.28,1.28,0,0,1,.58.05L15.77,9c1.06.22,1.59.33,1.78.13A.48.48,0,0,0,17.67,9c.07-.28-.32-.66-1.08-1.42l-1.2-1.2c-.19-.2-.29-.29-.33-.41s0-.08,0-.12a1.13,1.13,0,0,1,.17-.49L16,3.73c.39-.83.59-1.25.45-1.48a.46.46,0,0,0-.17-.17c-.23-.14-.65.06-1.48.45l-1.57.74a1.2,1.2,0,0,1-.5.17l-.12,0c-.12,0-.21-.13-.4-.33L11,1.89C10.19,1.13,9.81.75,9.54.81a.51.51,0,0,0-.23.12c-.2.2-.09.72.13,1.78l.29,1.42a1,1,0,0,1,0,.57.34.34,0,0,1-.06.12c-.07.11-.21.18-.48.3l-1.33.63c-.89.42-1.33.62-1.37.89a.52.52,0,0,0,0,.25c.1.25.58.35,1.54.55Zm0,0L.75,17.73m15-.73A2.12,2.12,0,0,0,14,18.75,2.12,2.12,0,0,0,12.24,17,2.12,2.12,0,0,0,14,15.25,2.12,2.12,0,0,0,15.74,17ZM5.24,2.5A2.12,2.12,0,0,0,3.49,4.25,2.12,2.12,0,0,0,1.74,2.5,2.12,2.12,0,0,0,3.49.75,2.12,2.12,0,0,0,5.24,2.5Z"/></g></g></svg>