<svg xmlns="http://www.w3.org/2000/svg" viewBox="0 0 19.5 19.57"><defs><style>.cls-1{fill:none;stroke:#f8f8f6;stroke-linecap:round;stroke-linejoin:round;stroke-width:1.5px;}</style></defs><g id="Layer_2" data-name="Layer 2"><g id="Layer_1-2" data-name="Layer 1"><path class="cls-1" d="M8.17,5.15a24.22,24.22,0,0,0-.32,3.5,14.71,14.71,0,0,0,.32,3.51m0-7L10,3.56c2.26-2,3.4-3,4.36-2.79a2,2,0,0,1,.83.38c.78.6.78,2.1.78,5.11V11c0,3,0,4.45-.77,5.05a2,2,0,0,1-.82.38c-1,.2-2.09-.77-4.34-2.69l-1.86-1.6m0-7c-.4,0-2.19,0-3.91,0-1.43,0-2.14,0-2.65.36A2.06,2.06,0,0,0,1.1,6C.75,6.51.75,7.23.75,8.66h0c0,1.44,0,2.16.36,2.67a2,2,0,0,0,.5.51c.52.36,1.23.35,2.67.35,1.71,0,3.49,0,3.89,0m-5.39,0,0,5.13a1.48,1.48,0,0,0,1.49,1.5h0a1.5,1.5,0,0,0,1.5-1.49V12.19M18,4.58a11.34,11.34,0,0,1,0,8.15"/></g></g></svg>