<svg xmlns="http://www.w3.org/2000/svg" viewBox="0 0 19.5 19.59"><defs><style>.cls-1{fill:none;stroke:#f8f8f6;stroke-linejoin:round;stroke-width:1.5px;}</style></defs><g id="Layer_2" data-name="Layer 2"><g id="Layer_1-2" data-name="Layer 1"><path class="cls-1" d="M7.25,3.25V6.11a.25.25,0,0,1-.12.22L1.45,10.27a1.62,1.62,0,0,0,1.37,2.89l4.6-1.31a.26.26,0,0,1,.33.25v2.28a1.33,1.33,0,0,1,0,.32l0,.07a1.25,1.25,0,0,1-.21.24L6,16.49a1.25,1.25,0,0,0-.21.24l0,.07a1.33,1.33,0,0,0,0,.32v.51c0,.63,0,.94.17,1.09a.45.45,0,0,0,.19.11c.21.06.48-.11,1-.44l2.14-1.34a1.31,1.31,0,0,1,.42-.21h.12a1.31,1.31,0,0,1,.42.21l2.14,1.34c.54.33.81.5,1,.44a.45.45,0,0,0,.19-.11c.17-.15.17-.46.17-1.09v-.51a1.33,1.33,0,0,0,0-.32l0-.07a1.25,1.25,0,0,0-.21-.24L12,15a1.25,1.25,0,0,1-.21-.24l0-.07a1.33,1.33,0,0,1,0-.32V12.1a.26.26,0,0,1,.33-.25l4.6,1.31a1.62,1.62,0,0,0,1.37-2.89L12.37,6.33a.25.25,0,0,1-.12-.22V3.25a2.5,2.5,0,0,0-5,0Z"/></g></g></svg>