<svg xmlns="http://www.w3.org/2000/svg" viewBox="0 0 18.67 18.5"><defs><style>.cls-1{fill:none;stroke:#f8f8f6;stroke-linecap:round;stroke-linejoin:round;stroke-width:1.5px;}</style></defs><g id="Layer_2" data-name="Layer 2"><g id="Layer_1-2" data-name="Layer 1"><path class="cls-1" d="M3,3.13V2.36A1.13,1.13,0,0,0,1.87,1.24h0A1.12,1.12,0,0,0,.75,2.36v8.76a1.13,1.13,0,0,0,1.12,1.13h0A1.14,1.14,0,0,0,3,11.12v-.89m0-7.1.75-.71a6.22,6.22,0,0,1,1.17-1,3.54,3.54,0,0,1,.34-.16A6,6,0,0,1,6.7,1C7.75.9,9.07.77,10,.75c.69,0,1.51,0,2.3.1a5.64,5.64,0,0,1,2.52.53,3.26,3.26,0,0,1,.55.43,6.14,6.14,0,0,1,1.19,2.48l1.2,3.41a2.87,2.87,0,0,1-2.51,3.81l-2,.15a1.1,1.1,0,0,0-1,1.33h0a6.06,6.06,0,0,1,0,3.65,1.66,1.66,0,0,1-1.63,1.11,1.22,1.22,0,0,1-1.18-.69,13.37,13.37,0,0,0-2.06-3.83,10.27,10.27,0,0,0-4.37-3m0-7.1v7.1"/></g></g></svg>