<svg xmlns="http://www.w3.org/2000/svg" xmlns:xlink="http://www.w3.org/1999/xlink" viewBox="0 0 19.5 15.5"><defs><style>.cls-1{fill:#fff;}.cls-2{fill:#f8f8f6;}.cls-3{mask:url(#mask);}</style><mask id="mask" x="9.75" y="2.25" width="4.5" height="4.5" maskUnits="userSpaceOnUse"><g id="path-1-inside-1_1_2377" data-name="path-1-inside-1 1 2377"><path class="cls-1" d="M12.75,4.5A.75.75,0,1,1,12,3.75.76.76,0,0,1,12.75,4.5Z"/></g></mask></defs><g id="Layer_2" data-name="Layer 2"><g id="Layer_1-2" data-name="Layer 1"><path class="cls-2" d="M12.75,4.5A.75.75,0,1,1,12,3.75.76.76,0,0,1,12.75,4.5Z"/><g class="cls-3"><path class="cls-2" d="M11.25,4.5A.76.76,0,0,1,12,3.75v3A2.25,2.25,0,0,0,14.25,4.5ZM12,3.75a.76.76,0,0,1,.75.75h-3A2.25,2.25,0,0,0,12,6.75Zm.75.75a.76.76,0,0,1-.75.75v-3A2.25,2.25,0,0,0,9.75,4.5ZM12,5.25a.76.76,0,0,1-.75-.75h3A2.25,2.25,0,0,0,12,2.25Z"/></g><path class="cls-2" d="M9.25,5.25a.75.75,0,0,0,0-1.5Zm-5-1.5a.75.75,0,0,0,0,1.5Zm11.5,1.5-.34-.67a.76.76,0,0,0-.41.67Zm0,5H15a.76.76,0,0,0,.41.67Zm2.69.61-.52-.55Zm-.35.21-.25-.7Zm-15.56,3-.42.62ZM1.42,13l-.62.42Zm13.66,0-.63-.41ZM14,14.08l.42.62ZM14,1.42l-.41.63Zm1.11,1.11-.63.41Zm3,1.9-.25.7Zm.35.21-.52.55ZM9.25,3.75h-5v1.5h5ZM7.75,1.5h1V0h-1Zm1,12.5h-1v1.5h1Zm7.34-8.08.39-.2-.67-1.34-.4.2ZM18,6.66V8.84h1.5V6.66ZM16.48,9.78l-.39-.2-.68,1.34.4.2Zm0,.47v-5H15v5ZM18,8.84c0,.59,0,1,0,1.24s-.08.27,0,.23l1,1.09a1.82,1.82,0,0,0,.51-1.14c0-.38,0-.87,0-1.42Zm-2.19,2.28a13.07,13.07,0,0,0,1.29.59,1.83,1.83,0,0,0,1.25.07l-.51-1.41s0,0-.23-.07a12,12,0,0,1-1.13-.52Zm2.11-.81a.16.16,0,0,1-.08.06l.51,1.41a1.8,1.8,0,0,0,.6-.38ZM7.75,14c-1.42,0-2.43,0-3.21-.08a3.45,3.45,0,0,1-1.6-.47L2.11,14.7a4.87,4.87,0,0,0,2.28.71c.87.09,2,.09,3.36.09ZM0,7.75c0,1.39,0,2.49.09,3.36A4.87,4.87,0,0,0,.8,13.39l1.25-.83A3.45,3.45,0,0,1,1.58,11c-.08-.78-.08-1.79-.08-3.21Zm2.94,5.7a3.14,3.14,0,0,1-.89-.89L.8,13.39A4.8,4.8,0,0,0,2.11,14.7ZM15,7.75c0,1.42,0,2.43-.08,3.21a3.45,3.45,0,0,1-.47,1.6l1.25.83a4.87,4.87,0,0,0,.71-2.28c.09-.87.09-2,.09-3.36ZM8.75,15.5c1.39,0,2.49,0,3.36-.09a4.87,4.87,0,0,0,2.28-.71l-.83-1.25a3.45,3.45,0,0,1-1.6.47c-.78.08-1.79.08-3.21.08Zm5.7-2.94a3.14,3.14,0,0,1-.89.89l.83,1.25a4.8,4.8,0,0,0,1.31-1.31ZM8.75,1.5c1.42,0,2.43,0,3.21.08a3.45,3.45,0,0,1,1.6.47L14.39.8A4.87,4.87,0,0,0,12.11.09C11.24,0,10.14,0,8.75,0ZM16.5,7.75c0-1.39,0-2.49-.09-3.36a4.87,4.87,0,0,0-.71-2.28l-1.25.83a3.45,3.45,0,0,1,.47,1.6c.08.78.08,1.79.08,3.21Zm-2.94-5.7a3.14,3.14,0,0,1,.89.89l1.25-.83A4.8,4.8,0,0,0,14.39.8Zm2.92,3.67a12,12,0,0,1,1.13-.52c.25-.09.27,0,.23-.07l.51-1.41a1.83,1.83,0,0,0-1.25.07,13.07,13.07,0,0,0-1.29.59Zm3,.94c0-.55,0-1,0-1.42A1.82,1.82,0,0,0,19,4.1l-1,1.09s0,0,0,.23,0,.65,0,1.24ZM17.84,5.13a.16.16,0,0,1,.08.06L19,4.1a1.8,1.8,0,0,0-.6-.38ZM7.75,0C6.36,0,5.26,0,4.39.09A4.87,4.87,0,0,0,2.11.8l.83,1.25a3.45,3.45,0,0,1,1.6-.47c.78-.08,1.79-.08,3.21-.08ZM1.5,7.75c0-1.42,0-2.43.08-3.21a3.45,3.45,0,0,1,.47-1.6L.8,2.11A4.87,4.87,0,0,0,.09,4.39C0,5.26,0,6.36,0,7.75ZM2.11.8A4.8,4.8,0,0,0,.8,2.11l1.25.83a3.14,3.14,0,0,1,.89-.89Z"/></g></g></svg>