<svg xmlns="http://www.w3.org/2000/svg" viewBox="0 0 19.5 13.5"><defs><style>.cls-1{fill:none;stroke:#dadada;stroke-linecap:round;stroke-linejoin:round;stroke-width:1.5px;}</style></defs><g id="Layer_2" data-name="Layer 2"><g id="Layer_1-2" data-name="Layer 1"><path class="cls-1" d="M18.75,7.75v-2m-12,7h3.5c2.34,0,3.51,0,4.36-.54a3.4,3.4,0,0,0,1.1-1.1c.54-.85.54-2,.54-4.36h0c0-2.34,0-3.51-.54-4.36a3.4,3.4,0,0,0-1.1-1.1c-.85-.54-2-.54-4.36-.54H6.75c-2.34,0-3.51,0-4.36.54a3.4,3.4,0,0,0-1.1,1.1c-.54.85-.54,2-.54,4.36h0c0,2.34,0,3.51.54,4.36a3.4,3.4,0,0,0,1.1,1.1C3.24,12.75,4.41,12.75,6.75,12.75Z"/></g></g></svg>