<svg xmlns="http://www.w3.org/2000/svg" viewBox="0 0 19.09 18.5"><defs><style>.cls-1{fill:none;stroke:#dadada;stroke-linecap:round;stroke-linejoin:round;stroke-width:1.5px;}.cls-2{fill:#dadada;}</style></defs><g id="Layer_2" data-name="Layer 2"><g id="Layer_1-2" data-name="Layer 1"><path class="cls-1" d="M7.25,16.25a1.5,1.5,0,1,1-1.5-1.5A1.5,1.5,0,0,1,7.25,16.25Z"/><path class="cls-1" d="M15.25,16.25a1.5,1.5,0,1,1-1.5-1.5A1.5,1.5,0,0,1,15.25,16.25Z"/><path class="cls-2" d="M.75,0A.76.76,0,0,0,0,.75a.76.76,0,0,0,.75.75ZM16.21,10.62l-.67-.34ZM5.75,3.5h9.59V2H5.75ZM17.34,6.78l-1.8,3.5,1.34.68,1.79-3.5Zm-3.8,4.72H5.75V13h7.79ZM3.5,9.25v-.5H2v.5Zm0-.5v-3H2v3Zm0,0v-6H2v6ZM5.75,11.5A2.25,2.25,0,0,1,3.5,9.25H2A3.75,3.75,0,0,0,5.75,13Zm9.79-1.22a2.24,2.24,0,0,1-2,1.22V13a3.76,3.76,0,0,0,3.34-2Zm-.2-6.78a2.25,2.25,0,0,1,2,3.28l1.33.68A3.75,3.75,0,0,0,15.34,2ZM3.5,2.75A2.75,2.75,0,0,0,.75,0V1.5A1.25,1.25,0,0,1,2,2.75ZM5.75,2A3.75,3.75,0,0,0,2,5.75H3.5A2.25,2.25,0,0,1,5.75,3.5Z"/></g></g></svg>