<svg xmlns="http://www.w3.org/2000/svg" viewBox="0 0 19.5 19.5"><defs><style>.cls-1,.cls-3{fill:none;stroke:#dadada;stroke-linejoin:round;stroke-width:1.5px;}.cls-1{stroke-linecap:round;}.cls-2{fill:#dadada;}</style></defs><g id="Layer_2" data-name="Layer 2"><g id="Layer_1-2" data-name="Layer 1"><path class="cls-1" d="M8.75,8.25v3.44a3.44,3.44,0,0,1,3.44-3.44h0a2.06,2.06,0,0,1,2.06,2.06v3.94m-9-6v6"/><circle class="cls-2" cx="5.25" cy="5.25" r="1"/><path class="cls-3" d="M.75,8c0-3,0-4.5.76-5.55a4.17,4.17,0,0,1,.89-.89C3.45.75,5,.75,8,.75h3.6c3,0,4.5,0,5.55.76A4.17,4.17,0,0,1,18,2.4c.76,1.05.76,2.55.76,5.55v3.6c0,3,0,4.5-.76,5.55a4.17,4.17,0,0,1-.89.89c-1.05.76-2.55.76-5.55.76H8c-3,0-4.5,0-5.55-.76a4.17,4.17,0,0,1-.89-.89C.75,16.05.75,14.55.75,11.55Z"/></g></g></svg>