<svg xmlns="http://www.w3.org/2000/svg" viewBox="0 0 17.81 19.56"><defs><style>.cls-1{fill:none;stroke:#dadada;stroke-linejoin:round;stroke-width:1.5px;}</style></defs><g id="Layer_2" data-name="Layer 2"><g id="Layer_1-2" data-name="Layer 1"><path class="cls-1" d="M8.9.75c-5,0-9,4-8,9,.67,3.33,4,6.43,6.14,8.14a3.37,3.37,0,0,0,1.6.91,2.35,2.35,0,0,0,.53,0,3.37,3.37,0,0,0,1.6-.91c2.15-1.71,5.47-4.81,6.13-8.14C17.9,4.75,13.87.75,8.9.75Z"/><path class="cls-1" d="M11.9,8.9a3,3,0,1,1-3-3A3,3,0,0,1,11.9,8.9Z"/></g></g></svg>