<svg xmlns="http://www.w3.org/2000/svg" viewBox="0 0 19.27 19.27"><defs><style>.cls-1{fill:none;stroke:#dadada;stroke-linejoin:round;stroke-width:1.5px;}</style></defs><g id="Layer_2" data-name="Layer 2"><g id="Layer_1-2" data-name="Layer 1"><path class="cls-1" d="M13.29,1.24c-.69-.3-1-.44-1.42-.29a1.4,1.4,0,0,0-.32.22c-.3.29-.3.73-.3,1.6V8H16.5c.87,0,1.3,0,1.59-.3a.91.91,0,0,0,.22-.33c.16-.38,0-.73-.28-1.41A9,9,0,0,0,13.29,1.24Z"/><path class="cls-1" d="M.75,9.52a9,9,0,0,0,17.5,3c.24-.67.35-1,.19-1.37a1.34,1.34,0,0,0-.22-.31c-.29-.27-.71-.27-1.53-.27H10.55c-.75,0-1.12,0-1.39-.2a.92.92,0,0,1-.22-.22c-.19-.26-.19-.64-.19-1.38V2.58c0-.83,0-1.24-.28-1.53A.87.87,0,0,0,8.16.83C7.8.66,7.46.78,6.79,1A9,9,0,0,0,.75,9.52Z"/></g></g></svg>