<svg xmlns="http://www.w3.org/2000/svg" viewBox="0 0 19.82 19.15"><defs><style>.cls-1{fill:none;stroke:#dadada;stroke-linejoin:round;stroke-width:1.5px;}</style></defs><g id="Layer_2" data-name="Layer 2"><g id="Layer_1-2" data-name="Layer 1"><path class="cls-1" d="M7,3.79a11.24,11.24,0,0,1,.75-1.92,2.5,2.5,0,0,1,4.17,0,13.32,13.32,0,0,1,.78,2h0c.08.24.13.36.17.46A2.51,2.51,0,0,0,15,5.79h.72a10.65,10.65,0,0,1,1.23,0,2.5,2.5,0,0,1,1.37,4.28c-.13.12-.42.33-1,.74h0l-.31.23a2.48,2.48,0,0,0-.82,2.58c0,.08.06.18.13.38h0a12.2,12.2,0,0,1,.46,1.45,2.49,2.49,0,0,1-3.48,2.68A10.47,10.47,0,0,1,12,17.38l-.46-.31a4.85,4.85,0,0,0-.57-.36,2.48,2.48,0,0,0-2.25,0,4.13,4.13,0,0,0-.57.36l-.44.29a12.27,12.27,0,0,1-1.28.82A2.5,2.5,0,0,1,3,15.5,13.46,13.46,0,0,1,3.46,14h0c.07-.19.1-.29.13-.38a2.5,2.5,0,0,0-.79-2.55l-.32-.24h0a11.4,11.4,0,0,1-1-.76A2.5,2.5,0,0,1,2.89,5.83a10.87,10.87,0,0,1,1.24,0h.64A2.51,2.51,0,0,0,6.84,4.33c0-.1.08-.21.16-.44Z"/></g></g></svg>