<svg xmlns="http://www.w3.org/2000/svg" viewBox="0 0 19.5 19.5"><defs><style>.cls-1{fill:none;stroke:#027cc5;stroke-linejoin:round;stroke-width:1.5px;}.cls-2{fill:#027cc5;}</style></defs><g id="Layer_2" data-name="Layer 2"><g id="Layer_1-2" data-name="Layer 1"><path class="cls-1" d="M9.75,18.75a9,9,0,0,0,9-8.1l0-.9h-.9c-2.4,0-3.06-.3-3.81-2.91l-.29-1.09-1,.44C9.74,7.25,8.24,5.67,9.31,2L9.75.75,8.43.85a9,9,0,0,0,1.32,17.9Z"/><path class="cls-2" d="M6.75,5.75a1,1,0,1,1-1-1A1,1,0,0,1,6.75,5.75Z"/><path class="cls-2" d="M5.75,10.75a1,1,0,1,1-1-1A1,1,0,0,1,5.75,10.75Z"/><path class="cls-2" d="M10.75,9.75a1,1,0,1,1-1-1A1,1,0,0,1,10.75,9.75Z"/><path class="cls-2" d="M9.75,14.75a1,1,0,1,1-1-1A1,1,0,0,1,9.75,14.75Z"/><path class="cls-2" d="M14.75,13.75a1,1,0,1,1-1-1A1,1,0,0,1,14.75,13.75Z"/></g></g></svg>