<svg xmlns="http://www.w3.org/2000/svg" viewBox="0 0 14.5 19.57"><defs><style>.cls-1{fill:none;stroke:#027cc5;stroke-linejoin:round;stroke-width:1.5px;}</style></defs><g id="Layer_2" data-name="Layer 2"><g id="Layer_1-2" data-name="Layer 1"><path class="cls-1" d="M7.25,18.82c2.79,0,6.5-2.28,6.5-7.39,0-3-2.3-6.57-4.16-8.93C8.75,1.44,8.34.92,7.6.78a2.18,2.18,0,0,0-.72,0c-.74.13-1.16.65-2,1.7C3,4.81.75,8.31.75,11.43.75,16.71,4.46,18.82,7.25,18.82Zm0,0a3.2,3.2,0,0,0,3-3.5,7.85,7.85,0,0,0-1.83-4.11c-.41-.54-.61-.81-1-.88a1.53,1.53,0,0,0-.37,0c-.38.07-.58.34-1,.88a7.76,7.76,0,0,0-1.81,4.12C4.25,17.82,6,18.82,7.25,18.82Z"/></g></g></svg>