<svg xmlns="http://www.w3.org/2000/svg" viewBox="0 0 19.5 15.5"><defs><style>.cls-1{fill:none;stroke:#027cc5;stroke-linejoin:round;stroke-width:1.5px;}</style></defs><g id="Layer_2" data-name="Layer 2"><g id="Layer_1-2" data-name="Layer 1"><path class="cls-1" d="M.75,6.15c0-2.25,0-3.37.57-4.16A3,3,0,0,1,2,1.32C2.78.75,3.9.75,6.15.75h1A5.85,5.85,0,0,1,8.22.8a2.67,2.67,0,0,1,.91.32,5.12,5.12,0,0,1,.87.63h0a5.12,5.12,0,0,0,.87.63,2.67,2.67,0,0,0,.91.32,5.85,5.85,0,0,0,1.07,0h.5c2.25,0,3.37,0,4.16.57a3,3,0,0,1,.67.67c.57.79.57,1.91.57,4.16v1.2c0,2.25,0,3.37-.57,4.16a3,3,0,0,1-.67.67c-.79.57-1.91.57-4.16.57H6.15c-2.25,0-3.37,0-4.16-.57a3,3,0,0,1-.67-.67C.75,12.72.75,11.6.75,9.35Z"/></g></g></svg>