<svg xmlns="http://www.w3.org/2000/svg" viewBox="0 0 17.87 19.47"><defs><style>.cls-1{fill:none;stroke:#027cc5;stroke-linejoin:round;stroke-width:1.5px;}</style></defs><g id="Layer_2" data-name="Layer 2"><g id="Layer_1-2" data-name="Layer 1"><path class="cls-1" d="M11.38,9.73A2.45,2.45,0,1,1,8.93,7.29,2.45,2.45,0,0,1,11.38,9.73Z"/><path class="cls-1" d="M6.1,2.43A7.24,7.24,0,0,1,7.19,1.31a3,3,0,0,1,3.49,0,7.24,7.24,0,0,1,1.09,1.12h0c.18.19.26.29.36.38a3.06,3.06,0,0,0,1.21.7l.5.11h0A8.17,8.17,0,0,1,15.36,4,3,3,0,0,1,17.1,7a7.49,7.49,0,0,1-.42,1.51h0c-.08.25-.12.37-.15.49a3,3,0,0,0,0,1.4c0,.13.07.25.15.5h0a7.49,7.49,0,0,1,.42,1.51,3,3,0,0,1-1.74,3,8.17,8.17,0,0,1-1.52.39h0a4.64,4.64,0,0,0-.5.11,3.06,3.06,0,0,0-1.21.7c-.1.09-.18.19-.36.38h0a7.24,7.24,0,0,1-1.09,1.12,3,3,0,0,1-3.49,0A7.24,7.24,0,0,1,6.1,17h0c-.18-.19-.26-.29-.36-.38A3.13,3.13,0,0,0,4.53,16,4.42,4.42,0,0,0,4,15.85H4a8,8,0,0,1-1.51-.39,3,3,0,0,1-1.75-3,8.56,8.56,0,0,1,.43-1.51h0c.08-.25.12-.37.15-.5a3,3,0,0,0,0-1.4c0-.12-.07-.24-.15-.49h0A8.56,8.56,0,0,1,.76,7,3,3,0,0,1,2.51,4,8,8,0,0,1,4,3.62H4l.51-.11a3.13,3.13,0,0,0,1.21-.7c.1-.09.18-.19.36-.38Z"/></g></g></svg>