<svg xmlns="http://www.w3.org/2000/svg" viewBox="0 0 18.67 18.5"><defs><style>.cls-1{fill:none;stroke:#027cc5;stroke-linecap:round;stroke-linejoin:round;stroke-width:1.5px;}</style></defs><g id="Layer_2" data-name="Layer 2"><g id="Layer_1-2" data-name="Layer 1"><path class="cls-1" d="M3,15.37v.77a1.13,1.13,0,0,1-1.13,1.12h0A1.12,1.12,0,0,1,.75,16.14V7.38A1.13,1.13,0,0,1,1.87,6.25h0A1.14,1.14,0,0,1,3,7.38v.89m0,7.1.75.71a6.22,6.22,0,0,0,1.17,1,3.54,3.54,0,0,0,.34.16,6,6,0,0,0,1.44.27c1,.12,2.37.25,3.3.27.69,0,1.51,0,2.3-.1a5.64,5.64,0,0,0,2.52-.53,3.26,3.26,0,0,0,.55-.43,6.14,6.14,0,0,0,1.19-2.48l1.2-3.41A2.87,2.87,0,0,0,15.25,7l-2-.15a1.1,1.1,0,0,1-1-1.33h0a6.06,6.06,0,0,0,0-3.65A1.66,1.66,0,0,0,10.61.75a1.22,1.22,0,0,0-1.18.69A13.37,13.37,0,0,1,7.37,5.27,10.27,10.27,0,0,1,3,8.27m0,7.1V8.27"/></g></g></svg>