<svg xmlns="http://www.w3.org/2000/svg" viewBox="0 0 19.5 19.5"><defs><style>.cls-1{fill:none;stroke:#027cc5;stroke-linecap:round;stroke-linejoin:round;stroke-width:1.5px;}</style></defs><g id="Layer_2" data-name="Layer 2"><g id="Layer_1-2" data-name="Layer 1"><path class="cls-1" d="M2.75,3.75v8A12.82,12.82,0,0,0,3,15.3,5,5,0,0,0,6.2,18.51a12.82,12.82,0,0,0,3.55.24h0a12.82,12.82,0,0,0,3.55-.24,5,5,0,0,0,3.21-3.21,12.82,12.82,0,0,0,.24-3.55v-8m-14,0h-2m2,0h4m10,0h2m-2,0h-4m-6,0h0A5.1,5.1,0,0,1,6.9,2,2,2,0,0,1,8,.9,5.1,5.1,0,0,1,9.75.75h0A5.1,5.1,0,0,1,11.52.9,2,2,0,0,1,12.6,2a5.1,5.1,0,0,1,.15,1.77h0m-6,0h6m-5.5,3.5v7m5-7v7"/></g></g></svg>