<svg xmlns="http://www.w3.org/2000/svg" viewBox="0 0 18.93 18.99"><defs><style>.cls-1{fill:none;stroke:#f8f8f6;stroke-linejoin:round;stroke-width:1.5px;}</style></defs><g id="Layer_2" data-name="Layer 2"><g id="Layer_1-2" data-name="Layer 1"><path class="cls-1" d="M7.67,1.84,1.88,7c-.61.54-.91.81-1,1.16a1.55,1.55,0,0,0-.08.36A3.41,3.41,0,0,0,1.17,10l2.61,6.55a3.49,3.49,0,0,0,.72,1.33l.29.2a3.54,3.54,0,0,0,1.5.16h6.35a3.54,3.54,0,0,0,1.5-.16l.29-.2a3.37,3.37,0,0,0,.71-1.33L17.76,10h0a3.41,3.41,0,0,0,.41-1.5,1.55,1.55,0,0,0-.08-.36c-.13-.35-.44-.62-1-1.16L11.26,1.84c-.76-.67-1.14-1-1.58-1.07a1,1,0,0,0-.43,0C8.8.83,8.42,1.17,7.67,1.84Z"/></g></g></svg>