<svg xmlns="http://www.w3.org/2000/svg" viewBox="0 0 19.46 19.45"><defs><style>.cls-1{fill:#f8f8f6;}</style></defs><g id="Layer_2" data-name="Layer 2"><g id="Layer_1-2" data-name="Layer 1"><path class="cls-1" d="M1.78,1.77l-.54-.53h0Zm4.94,0,.54-.53Zm0,4.95-.53-.53Zm6,6-.53-.53Zm4.94,4.95-.53-.53ZM5.31,14.14l-.53.53ZM.77,4.61h.75a.22.22,0,0,0,0-.08ZM14.85,18.68l.08-.74h-.08Zm-10-11L4.69,7a.74.74,0,0,0-.54,1.1Zm6.94,7-.35.66a.76.76,0,0,0,.69,0,.74.74,0,0,0,.4-.55ZM2.31,2.31a2.73,2.73,0,0,1,3.88,0L7.26,1.24a4.28,4.28,0,0,0-6,0Zm3.88,0a2.73,2.73,0,0,1,0,3.88L7.26,7.25a4.27,4.27,0,0,0,0-6Zm7.08,11a2.75,2.75,0,0,1,3.88,0l1.07-1.06a4.25,4.25,0,0,0-6,0Zm3.88,0a2.74,2.74,0,0,1,0,3.89l1.07,1.06a4.25,4.25,0,0,0,0-6Zm-11.31.35C3,10.79,1.53,7.39,1.52,4.61H0c0,3.27,1.72,7,4.76,10.06ZM1.51,4.53a2.73,2.73,0,0,1,.8-2.22L1.24,1.24A4.29,4.29,0,0,0,0,4.69ZM17.15,17.15a2.73,2.73,0,0,1-2.22.79l-.16,1.49a4.26,4.26,0,0,0,3.45-1.22Zm-2.3.78c-2.79,0-6.18-1.49-9-4.32L4.78,14.67c3,3,6.79,4.75,10.07,4.76ZM6.19,6.19A2.69,2.69,0,0,1,4.69,7l.23,1.48A4.18,4.18,0,0,0,7.26,7.25Zm2.13,5A16.23,16.23,0,0,1,5.47,7.35l-1.32.71A17.75,17.75,0,0,0,7.26,12.2Zm4.17,3.63a2.76,2.76,0,0,1,.78-1.51L12.21,12.2A4.27,4.27,0,0,0,11,14.53ZM12.11,14a16.31,16.31,0,0,1-3.79-2.85L7.26,12.2a17.61,17.61,0,0,0,4.14,3.11Z"/></g></g></svg>