<svg xmlns="http://www.w3.org/2000/svg" viewBox="0 0 12.1 14.41"><defs><style>.cls-1{fill:none;stroke:#f8f8f6;stroke-linejoin:round;stroke-width:1.5px;}</style></defs><g id="Layer_2" data-name="Layer 2"><g id="Layer_1-2" data-name="Layer 1"><path class="cls-1" d="M8.82,9.83c1.57-1.05,2.35-1.57,2.49-2.28a1.56,1.56,0,0,0,0-.68c-.14-.72-.92-1.24-2.49-2.28L5.65,2.47C3.75,1.21,2.8.57,2,.79a1.78,1.78,0,0,0-.66.36C.75,1.67.75,2.81.75,5.09V9.32c0,2.28,0,3.42.61,3.95a1.91,1.91,0,0,0,.66.35c.78.22,1.73-.41,3.63-1.68Z"/></g></g></svg>