<svg xmlns="http://www.w3.org/2000/svg" viewBox="0 0 19.5 17.5"><defs><style>.cls-1{fill:none;stroke:#f8f8f6;stroke-linejoin:round;stroke-width:1.5px;}</style></defs><g id="Layer_2" data-name="Layer 2"><g id="Layer_1-2" data-name="Layer 1"><path class="cls-1" d="M8.75,12.75,6.29,15.21c-.58.58-.87.87-.83,1.12a.67.67,0,0,0,.09.21c.15.21.56.21,1.37.21h5.66c.81,0,1.22,0,1.37-.21a.67.67,0,0,0,.09-.21c0-.25-.25-.54-.83-1.12l-2.46-2.46m-2,0H6.15c-2.25,0-3.37,0-4.16-.57a3,3,0,0,1-.67-.67C.75,10.72.75,9.6.75,7.35V6.15c0-2.25,0-3.37.57-4.16A3,3,0,0,1,2,1.32C2.78.75,3.9.75,6.15.75h7.2c2.25,0,3.37,0,4.16.57a3,3,0,0,1,.67.67c.57.79.57,1.91.57,4.16v1.2c0,2.25,0,3.37-.57,4.16a3,3,0,0,1-.67.67c-.79.57-1.91.57-4.16.57h-2.6m-2,0h2"/></g></g></svg>