<svg width="24" height="24" viewBox="0 0 24 24" fill="none" xmlns="http://www.w3.org/2000/svg">
<path d="M21 13V11M9 18H12.5C14.8389 18 16.0083 18 16.8621 17.4635C17.3073 17.1838 17.6838 16.8073 17.9635 16.3621C18.5 15.5083 18.5 14.3389 18.5 12V12C18.5 9.66111 18.5 8.49167 17.9635 7.63789C17.6838 7.19267 17.3073 6.81621 16.8621 6.53647C16.0083 6 14.8389 6 12.5 6H9C6.66111 6 5.49167 6 4.63789 6.53647C4.19267 6.81621 3.81621 7.19267 3.53647 7.63789C3 8.49167 3 9.66111 3 12V12C3 14.3389 3 15.5083 3.53647 16.3621C3.81621 16.8073 4.19267 17.1838 4.63789 17.4635C5.49167 18 6.66111 18 9 18Z" stroke="#292556" stroke-width="1.5" stroke-linecap="round" stroke-linejoin="round"/>
</svg>
