<svg width="24" height="24" viewBox="0 0 24 24" fill="none" xmlns="http://www.w3.org/2000/svg">
<path d="M15.75 9.5V14.5M13.0417 14.5L12.3542 13M8.45833 14.5L9.14583 13M9.14583 13L10.75 9.5L12.3542 13M9.14583 13H12.3542M6 7C6 4.79086 7.79086 3 10 3C10.7286 3 11.4117 3.19479 12 3.53513C12.5883 3.19479 13.2714 3 14 3C16.2091 3 18 4.79086 18 7C18 7.37801 17.9476 7.74377 17.8496 8.0904C19.6506 8.47994 21 10.0824 21 12C21 13.9176 19.6506 15.5201 17.8496 15.9096C17.9476 16.2562 18 16.622 18 17C18 19.2091 16.2091 21 14 21C13.2714 21 12.5883 20.8052 12 20.4649C11.4117 20.8052 10.7286 21 10 21C7.79086 21 6 19.2091 6 17C6 16.622 6.05243 16.2562 6.15043 15.9096C4.34939 15.5201 3 13.9176 3 12C3 10.0824 4.34939 8.47994 6.15043 8.0904C6.05243 7.74377 6 7.37801 6 7Z" stroke="#292556" stroke-width="1.5" stroke-linecap="round" stroke-linejoin="round"/>
</svg>
