<svg width="24" height="24" viewBox="0 0 24 24" fill="none" xmlns="http://www.w3.org/2000/svg">
<path d="M9.5 11.6742C8.02091 11.2385 6.33336 11.6216 5.14134 12.8136C3.70584 14.2491 3.52373 18.6566 3.5026 20.0633C3.49994 20.2407 3.4986 20.3295 3.54713 20.3967C3.56223 20.4176 3.58256 20.4379 3.60348 20.453C3.67069 20.5015 3.75941 20.5002 3.93684 20.4975C5.34353 20.4764 9.751 20.2943 11.1865 18.8588C12.3786 17.6667 12.7617 15.9791 12.3259 14.5M9.5 11.6742C9.55979 11.6918 9.61923 11.7108 9.67829 11.7311C9.79293 11.7704 9.90611 11.8149 10.0175 11.8643C10.474 12.0671 10.9002 12.3546 11.2729 12.7273C11.6466 13.1011 11.9348 13.5288 12.1376 13.9868C12.1864 14.0969 12.2302 14.2086 12.2691 14.3219C12.2893 14.3809 12.3083 14.4403 12.3259 14.5M9.5 11.6742L17.1658 4.55734C17.5713 4.18092 17.774 3.99271 18.0042 3.92693C18.1959 3.87214 18.3996 3.87592 18.5892 3.93779C18.8168 4.01206 19.0124 4.20767 19.4036 4.59888V4.59888C19.7949 4.9902 19.9906 5.18587 20.0648 5.4135C20.1267 5.60311 20.1304 5.80689 20.0756 5.99864C20.0098 6.22885 19.8214 6.43158 19.4448 6.83704L12.3259 14.5M8.5 4.75C7.5 5 7 5.5 6.75 6.5C6.5 5.5 6 5 5 4.75C6 4.5 6.5 4 6.75 3C7 4 7.5 4.5 8.5 4.75ZM19 19.25C18 19.5 17.5 20 17.25 21C17 20 16.5 19.5 15.5 19.25C16.5 19 17 18.5 17.25 17.5C17.5 18.5 18 19 19 19.25Z" stroke="#292556" stroke-width="1.5" stroke-linecap="round" stroke-linejoin="round"/>
</svg>
