<svg width="24" height="24" viewBox="0 0 24 24" fill="none" xmlns="http://www.w3.org/2000/svg">
<path d="M14.5 10V10C14.5 8.89543 13.6046 8 12.5 8H12M12 8H11.5C10.3954 8 9.5 8.89543 9.5 10V10C9.5 11.1046 10.3954 12 11.5 12H12M12 8V6.5M12 8V12M12 12H12.5C13.6046 12 14.5 12.8954 14.5 14V14C14.5 15.1046 13.6046 16 12.5 16H12M12 12V16M12 16H11.5C10.3954 16 9.5 15.1046 9.5 14V14M12 16V17.5M21 12C21 16.9706 16.9706 21 12 21C7.02944 21 3 16.9706 3 12C3 7.02944 7.02944 3 12 3C16.9706 3 21 7.02944 21 12Z" stroke="#292556" stroke-width="1.5" stroke-linecap="round" stroke-linejoin="round"/>
</svg>
