<svg width="24" height="24" viewBox="0 0 24 24" fill="none" xmlns="http://www.w3.org/2000/svg">
<path d="M12 21C16.9706 21 21 16.9706 21 12C21 7.02944 16.9706 3 12 3C7.02944 3 3 7.02944 3 12C3 16.9706 7.02944 21 12 21Z" stroke="#292556" stroke-width="1.5" stroke-linecap="round" stroke-linejoin="round"/>
<path fill-rule="evenodd" clip-rule="evenodd" d="M13.3266 11.2993L16.5 11.2993C16.9142 11.2993 17.25 11.6351 17.25 12.0493C17.25 12.4635 16.9142 12.7993 16.5 12.7993L13.2695 12.7993C13.0039 13.2203 12.5346 13.5 12 13.5C11.1716 13.5 10.5 12.8284 10.5 12C10.5 11.4448 10.8016 10.96 11.25 10.7007L11.25 6.54931C11.25 6.1351 11.5858 5.79931 12 5.79931C12.4142 5.79932 12.75 6.1351 12.75 6.54932L12.75 10.7007C12.994 10.8418 13.1945 11.0497 13.3266 11.2993Z" fill="#292556"/>
</svg>
