<svg width="24" height="24" viewBox="0 0 24 24" fill="none" xmlns="http://www.w3.org/2000/svg">
<path d="M9.00017 16V16C9.00017 17.8692 9.00017 18.8038 9.40209 19.5C9.6654 19.9561 10.0441 20.3348 10.5002 20.5981C11.1963 21 12.1309 21 14.0002 21H15.6002C17.85 21 18.9749 21 19.7635 20.4271C20.0182 20.242 20.2422 20.018 20.4272 19.7634C21.0002 18.9748 21.0002 17.8498 21.0002 15.6V13.4C21.0002 11.1502 21.0002 10.0252 20.4272 9.23664C20.2422 8.98196 20.0182 8.75799 19.7635 8.57295C18.9749 8 17.85 8 15.6002 8H15.0002M9.60017 16H8.40017C6.15033 16 5.02541 16 4.23681 15.4271C3.98213 15.242 3.75816 15.018 3.57312 14.7634C3.00017 13.9748 3.00017 12.8498 3.00017 10.6V8.4C3.00017 6.15016 3.00017 5.02524 3.57312 4.23664C3.75816 3.98196 3.98213 3.75799 4.23681 3.57295C5.02541 3 6.15033 3 8.40017 3H9.60017C11.85 3 12.9749 3 13.7635 3.57295C14.0182 3.75799 14.2422 3.98196 14.4272 4.23664C15.0002 5.02524 15.0002 6.15016 15.0002 8.4V10.6C15.0002 12.8498 15.0002 13.9748 14.4272 14.7634C14.2422 15.018 14.0182 15.242 13.7635 15.4271C12.9749 16 11.85 16 9.60017 16Z" stroke="#292556" stroke-width="1.5" stroke-linejoin="round"/>
</svg>
