<svg width="24" height="24" viewBox="0 0 24 24" fill="none" xmlns="http://www.w3.org/2000/svg">
<path d="M11 9C11 9.82843 10.3284 10.5 9.5 10.5C8.67157 10.5 8 9.82843 8 9C8 8.17157 8.67157 7.5 9.5 7.5C10.3284 7.5 11 8.17157 11 9Z" fill="#292556"/>
<path d="M16 9C16 9.82843 15.3284 10.5 14.5 10.5C13.6716 10.5 13 9.82843 13 9C13 8.17157 13.6716 7.5 14.5 7.5C15.3284 7.5 16 8.17157 16 9Z" fill="#292556"/>
<path d="M8.13239 15.3309C9.04936 14.2131 10.4414 13.5 12 13.5C13.5586 13.5 14.9506 14.2131 15.8676 15.3309C16.1626 15.6905 16.3101 15.8704 16.2581 16.1072C16.2439 16.172 16.2034 16.2575 16.1624 16.3096C16.0122 16.5 15.7443 16.5 15.2085 16.5H8.7914C8.2556 16.5 7.9877 16.5 7.83756 16.3096C7.7965 16.2575 7.75604 16.172 7.74182 16.1072C7.68983 15.8704 7.83735 15.6905 8.13239 15.3309Z" stroke="#292556" stroke-width="1.5" stroke-linecap="round" stroke-linejoin="round"/>
<path d="M12 21C16.9706 21 21 16.9706 21 12C21 7.02944 16.9706 3 12 3C7.02944 3 3 7.02944 3 12C3 16.9706 7.02944 21 12 21Z" stroke="#292556" stroke-width="1.5" stroke-linecap="round" stroke-linejoin="round"/>
</svg>
