<svg width="24" height="24" viewBox="0 0 24 24" fill="none" xmlns="http://www.w3.org/2000/svg">
<path d="M7.41797 13.5C8.18953 15.2659 9.95161 16.5 12.0019 16.5C14.0522 16.5 15.8143 15.2659 16.5859 13.5M21 12C21 16.9706 16.9706 21 12 21C7.02944 21 3 16.9706 3 12C3 7.02944 7.02944 3 12 3C16.9706 3 21 7.02944 21 12Z" stroke="#292556" stroke-width="1.5" stroke-linecap="round" stroke-linejoin="round"/>
<path d="M8.88981 7.75954C8.98674 7.50904 9.0352 7.38379 9.08286 7.32398C9.28303 7.07273 9.6648 7.07273 9.86497 7.32398C9.91262 7.38379 9.96109 7.50904 10.058 7.75954L10.0743 7.80166C10.0886 7.83868 10.0958 7.85719 10.1036 7.8736C10.1806 8.03658 10.3395 8.14544 10.5193 8.15851C10.5374 8.15983 10.5573 8.15983 10.597 8.15983H10.7434C10.7899 8.15983 10.8131 8.15983 10.8242 8.16032C11.2997 8.18142 11.4796 8.79218 11.0914 9.06761C11.0823 9.07403 11.0628 9.08662 11.0238 9.1118V9.1118C11.0126 9.11901 11.007 9.12261 11.0021 9.12593C10.8132 9.25418 10.7351 9.49415 10.8125 9.709C10.8145 9.71455 10.8169 9.72076 10.8217 9.73317L10.8296 9.75353C10.8674 9.85137 10.8864 9.90029 10.8934 9.9268C11.0024 10.3372 10.5825 10.6881 10.198 10.5079C10.1732 10.4963 10.1284 10.4689 10.0388 10.4143L9.80552 10.272C9.7367 10.23 9.70229 10.209 9.6677 10.1944C9.54376 10.1423 9.40406 10.1423 9.28012 10.1944C9.24554 10.209 9.21112 10.23 9.1423 10.272L8.913 10.4119C8.8202 10.4685 8.77381 10.4968 8.74803 10.5087C8.36448 10.6866 7.94701 10.3378 8.05391 9.92871C8.0611 9.90122 8.08071 9.85053 8.11994 9.74916L8.12789 9.72861C8.1329 9.71566 8.1354 9.70919 8.13749 9.70338C8.21365 9.49114 8.13832 9.25419 7.95359 9.12488C7.94853 9.12134 7.94275 9.11751 7.93118 9.10983V9.10983C7.89115 9.08325 7.87113 9.06997 7.86173 9.06308C7.48145 8.78429 7.66305 8.18233 8.13407 8.16037C8.1457 8.15983 8.16973 8.15983 8.21778 8.15983H8.35202C8.39061 8.15983 8.40991 8.15983 8.42752 8.15859C8.60807 8.14582 8.76763 8.03648 8.84469 7.87269C8.8522 7.85672 8.85917 7.83873 8.87309 7.80273L8.88981 7.75954Z" fill="#292556"/>
<path d="M13.8898 7.75954C13.9867 7.50904 14.0352 7.38379 14.0829 7.32398C14.283 7.07273 14.6648 7.07273 14.865 7.32398C14.9126 7.38379 14.9611 7.50904 15.058 7.75954L15.0743 7.80166C15.0886 7.83868 15.0958 7.85719 15.1036 7.8736C15.1806 8.03658 15.3395 8.14544 15.5193 8.15851C15.5374 8.15983 15.5573 8.15983 15.597 8.15983H15.7434C15.7899 8.15983 15.8131 8.15983 15.8242 8.16032C16.2997 8.18142 16.4796 8.79218 16.0914 9.06761C16.0823 9.07403 16.0628 9.08662 16.0238 9.1118V9.1118C16.0126 9.11901 16.007 9.12261 16.0021 9.12593C15.8132 9.25418 15.7351 9.49415 15.8125 9.709C15.8145 9.71455 15.8169 9.72076 15.8217 9.73317L15.8296 9.75353C15.8674 9.85137 15.8864 9.90029 15.8934 9.9268C16.0024 10.3372 15.5825 10.6881 15.198 10.5079C15.1732 10.4963 15.1284 10.4689 15.0388 10.4143L14.8055 10.272C14.7367 10.23 14.7023 10.209 14.6677 10.1944C14.5438 10.1423 14.4041 10.1423 14.2801 10.1944C14.2455 10.209 14.2111 10.23 14.1423 10.272L13.913 10.4119C13.8202 10.4685 13.7738 10.4968 13.748 10.5087C13.3645 10.6866 12.947 10.3378 13.0539 9.92871C13.0611 9.90122 13.0807 9.85053 13.1199 9.74916L13.1279 9.72861C13.1329 9.71566 13.1354 9.70919 13.1375 9.70338C13.2136 9.49114 13.1383 9.25419 12.9536 9.12488C12.9485 9.12134 12.9427 9.11751 12.9312 9.10983V9.10983C12.8911 9.08325 12.8711 9.06997 12.8617 9.06308C12.4814 8.78429 12.6631 8.18233 13.1341 8.16037C13.1457 8.15983 13.1697 8.15983 13.2178 8.15983H13.352C13.3906 8.15983 13.4099 8.15983 13.4275 8.15859C13.6081 8.14582 13.7676 8.03648 13.8447 7.87269C13.8522 7.85672 13.8592 7.83873 13.8731 7.80273L13.8898 7.75954Z" fill="#292556"/>
</svg>
