<svg width="24" height="24" viewBox="0 0 24 24" fill="none" xmlns="http://www.w3.org/2000/svg">
<path d="M12 3H9C7.34315 3 6 4.34315 6 6C6 7.65685 7.34315 9 9 9M12 3H15C16.6569 3 18 4.34315 18 6C18 7.65685 16.6569 9 15 9H12M12 3V9M12 9H9M12 9V15M9 9C7.34315 9 6 10.3431 6 12C6 13.6569 7.34315 15 9 15M12 15H9M12 15V18C12 19.6569 10.6569 21 9 21C7.34315 21 6 19.6569 6 18C6 16.3431 7.34315 15 9 15M18 12.125C18 13.7128 16.7128 15 15.125 15C13.5372 15 12.25 13.7128 12.25 12.125C12.25 10.5372 13.5372 9.25 15.125 9.25C16.7128 9.25 18 10.5372 18 12.125Z" stroke="#292556" stroke-width="1.5"/>
</svg>
