<svg width="24" height="24" viewBox="0 0 24 24" fill="none" xmlns="http://www.w3.org/2000/svg">
<path d="M12.0004 3V5M12.0004 3C9.51512 3 7.26512 4.00736 5.63644 5.63604M12.0004 3C14.4855 3 16.7354 4.00725 18.3641 5.63577M3.0004 12C3.0004 9.51472 4.00776 7.26472 5.63644 5.63604M3.0004 12H5.0004M3.0004 12C3.0004 14.4851 4.00764 16.735 5.63616 18.3637M5.63644 5.63604L7.04969 7.04929M18.3641 5.63577C19.9929 7.26447 21.0004 9.51458 21.0004 12M18.3641 5.63577L16.9499 7.04998M21.0004 12L19.0004 12M21.0004 12C21.0004 14.4853 19.993 16.7353 18.3644 18.364M12.0004 21V19M12.0004 21C14.4857 21 16.7357 19.9926 18.3644 18.364M12.0004 21C9.51498 21 7.26487 19.9925 5.63616 18.3637M18.3644 18.364L16.9492 16.9488M5.63616 18.3637L7.05038 16.9495M12 10.5V10.5C12.8284 10.5 13.5004 11.1716 13.5004 12V12C13.5004 12.8284 12.8288 13.5 12.0004 13.5V13.5C11.172 13.5 10.5004 12.8282 10.5004 11.9998V11.9998C10.5004 11.1716 11.1718 10.5 12 10.5V10.5ZM12 10.5V7.75" stroke="#292556" stroke-width="1.5" stroke-linecap="round" stroke-linejoin="round"/>
</svg>
