<svg width="24" height="24" viewBox="0 0 24 24" fill="none" xmlns="http://www.w3.org/2000/svg">
<path d="M14.4473 12C14.4473 13.3486 13.3539 14.4419 12.005 14.4419C10.6561 14.4419 9.56268 13.3486 9.56268 12C9.56268 10.6514 10.6561 9.55814 12.005 9.55814C13.3539 9.55814 14.4473 10.6514 14.4473 12Z" stroke="#292556" stroke-width="1.5" stroke-linejoin="round"/>
<path d="M9.1669 4.69252C9.71391 4.07721 9.98741 3.76955 10.2625 3.57326C11.3051 2.82934 12.7049 2.82934 13.7475 3.57326C14.0226 3.76955 14.2961 4.07721 14.8431 4.69252V4.69252C15.0169 4.88804 15.1038 4.9858 15.1966 5.07375C15.5398 5.39927 15.9551 5.63901 16.4086 5.77342C16.5311 5.80973 16.6593 5.83611 16.9157 5.88887V5.88887C17.7214 6.05468 18.1242 6.13758 18.4313 6.27731C19.5981 6.80814 20.2987 8.02162 20.175 9.29747C20.1424 9.63332 20.0129 10.0234 19.7538 10.8036V10.8036C19.6714 11.0516 19.6302 11.1756 19.6004 11.2998C19.4899 11.7601 19.4899 12.2399 19.6004 12.7002C19.6302 12.8244 19.6714 12.9484 19.7538 13.1964V13.1964C20.0129 13.9766 20.1424 14.3667 20.175 14.7025C20.2987 15.9784 19.5981 17.1919 18.4313 17.7227C18.1242 17.8624 17.7214 17.9453 16.9157 18.1111V18.1111C16.6593 18.1639 16.5311 18.1903 16.4086 18.2266C15.9551 18.361 15.5398 18.6007 15.1966 18.9262C15.1038 19.0142 15.0169 19.112 14.8431 19.3075V19.3075C14.2961 19.9228 14.0226 20.2305 13.7475 20.4267C12.7049 21.1707 11.3051 21.1707 10.2625 20.4267C9.98741 20.2305 9.71391 19.9228 9.1669 19.3075V19.3075C8.99308 19.112 8.90618 19.0142 8.81345 18.9262C8.47024 18.6007 8.05493 18.361 7.60141 18.2266C7.47887 18.1903 7.35069 18.1639 7.09433 18.1111V18.1111C6.28865 17.9453 5.88582 17.8624 5.57869 17.7227C4.41193 17.1919 3.71134 15.9784 3.83504 14.7025C3.86759 14.3667 3.99715 13.9766 4.25625 13.1964V13.1964C4.33863 12.9484 4.37982 12.8244 4.40962 12.7002C4.5201 12.2399 4.5201 11.7601 4.40962 11.2998C4.37982 11.1756 4.33863 11.0516 4.25625 10.8036V10.8036C3.99715 10.0234 3.8676 9.63332 3.83504 9.29747C3.71134 8.02163 4.41193 6.80814 5.57869 6.27731C5.88582 6.13758 6.28865 6.05468 7.09433 5.88887V5.88887C7.35069 5.83611 7.47887 5.80973 7.60141 5.77342C8.05493 5.63901 8.47024 5.39927 8.81345 5.07375C8.90618 4.9858 8.99308 4.88804 9.1669 4.69252V4.69252Z" stroke="#292556" stroke-width="1.5" stroke-linejoin="round"/>
</svg>
