<svg width="24" height="24" viewBox="0 0 24 24" fill="none" xmlns="http://www.w3.org/2000/svg">
<path d="M13 3H10.4C8.15016 3 7.02524 3 6.23664 3.57295C5.98196 3.75799 5.75799 3.98196 5.57295 4.23664C5 5.02524 5 6.15016 5 8.4V15.6C5 17.8498 5 18.9748 5.57295 19.7634C5.75799 20.018 5.98196 20.242 6.23664 20.4271C7.02524 21 8.15016 21 10.4 21H13.6C15.8498 21 16.9748 21 17.7634 20.4271C18.018 20.242 18.242 20.018 18.4271 19.7634C19 18.9748 19 17.8498 19 15.6V9M13 3V3C13.6403 3 14.2544 3.25435 14.7071 3.70711L18.2929 7.29289C18.7456 7.74565 19 8.35971 19 9V9M13 3V3.6C13 5.84984 13 6.97476 13.573 7.76336C13.758 8.01804 13.982 8.24201 14.2366 8.42705C15.0252 9 16.1502 9 18.4 9L19 9M10.75 11C9.75 11.25 9.25 11.75 9 12.75C8.75 11.75 8.25 11.25 7.25 11C8.25 10.75 8.75 10.25 9 9.25C9.25 10.25 9.75 10.75 10.75 11ZM16.75 15.25C14.75 15.75 13.75 16.75 13.25 18.75C12.75 16.75 11.75 15.75 9.75 15.25C11.75 14.75 12.75 13.75 13.25 11.75C13.75 13.75 14.75 14.75 16.75 15.25Z" stroke="#292556" stroke-width="1.5" stroke-linecap="round" stroke-linejoin="round"/>
</svg>
