<svg width="24" height="24" viewBox="0 0 24 24" fill="none" xmlns="http://www.w3.org/2000/svg">
<path d="M5 16.25V16.25C4.21566 16.25 3.48796 15.7847 3.2902 15.0257C3.10081 14.2988 3 13.5362 3 12.75C3 7.77944 7.02944 3.75 12 3.75C16.9706 3.75 21 7.77944 21 12.75C21 13.5362 20.8992 14.2988 20.7098 15.0257C20.512 15.7847 19.7843 16.25 19 16.25V16.25M17 20.25V20.25C18.1046 20.25 19 19.3546 19 18.25V14.25C19 13.1454 18.1046 12.25 17 12.25V12.25C15.8954 12.25 15 13.1454 15 14.25V18.25C15 19.3546 15.8954 20.25 17 20.25ZM7 20.25V20.25C8.10457 20.25 9 19.3546 9 18.25V14.25C9 13.1454 8.10457 12.25 7 12.25V12.25C5.89543 12.25 5 13.1454 5 14.25V18.25C5 19.3546 5.89543 20.25 7 20.25Z" stroke="#292556" stroke-width="1.5" stroke-linecap="round" stroke-linejoin="round"/>
</svg>
