<svg width="24" height="24" viewBox="0 0 24 24" fill="none" xmlns="http://www.w3.org/2000/svg">
<path d="M3 16V16C3 16.4643 3 16.6965 3.01926 16.8921C3.20631 18.7912 4.70882 20.2937 6.60793 20.4807C6.80349 20.5 7.03566 20.5 7.5 20.5H16.5C16.9643 20.5 17.1965 20.5 17.3921 20.4807C19.2912 20.2937 20.7937 18.7912 20.9807 16.8921C21 16.6965 21 16.4643 21 16V16M3 16V10.7C3 7.70021 3 6.20032 3.76393 5.14886C4.01065 4.80928 4.30928 4.51065 4.64886 4.26393C5.70032 3.5 7.20021 3.5 10.2 3.5H13.8C16.7998 3.5 18.2997 3.5 19.3511 4.26393C19.6907 4.51065 19.9893 4.80928 20.2361 5.14886C21 6.20032 21 7.70021 21 10.7V16M3 16L5.28731 12.7978C6.26497 11.429 6.7538 10.7447 7.37713 10.5404C7.78179 10.4078 8.21821 10.4078 8.62287 10.5404C9.2462 10.7447 9.73503 11.429 10.7127 12.7978L11.2199 13.5079C11.5923 14.0292 11.7785 14.2899 11.9781 14.4555C12.6242 14.9916 13.5364 15.0671 14.2619 14.6445C14.486 14.514 14.7125 14.2875 15.1655 13.8345V13.8345C15.5562 13.4438 15.7516 13.2484 15.9512 13.1255C16.5943 12.7294 17.4057 12.7294 18.0488 13.1255C18.2484 13.2484 18.4438 13.4438 18.8345 13.8345L21 16M18 8.25C18 9.2165 17.2165 10 16.25 10C15.2835 10 14.5 9.2165 14.5 8.25C14.5 7.2835 15.2835 6.5 16.25 6.5C17.2165 6.5 18 7.2835 18 8.25Z" stroke="#292556" stroke-width="1.5" stroke-linejoin="round"/>
</svg>
