<svg width="24" height="24" viewBox="0 0 24 24" fill="none" xmlns="http://www.w3.org/2000/svg">
<path d="M18.5 6.5C18.5 7.05228 18.0523 7.5 17.5 7.5C16.9477 7.5 16.5 7.05228 16.5 6.5C16.5 5.94772 16.9477 5.5 17.5 5.5C18.0523 5.5 18.5 5.94772 18.5 6.5Z" fill="#292556"/>
<path d="M3 10.2C3 7.20021 3 5.70032 3.76393 4.64886C4.01065 4.30928 4.30928 4.01065 4.64886 3.76393C5.70032 3 7.20021 3 10.2 3H13.8C16.7998 3 18.2997 3 19.3511 3.76393C19.6907 4.01065 19.9893 4.30928 20.2361 4.64886C21 5.70032 21 7.20021 21 10.2V13.8C21 16.7998 21 18.2997 20.2361 19.3511C19.9893 19.6907 19.6907 19.9893 19.3511 20.2361C18.2997 21 16.7998 21 13.8 21H10.2C7.20021 21 5.70032 21 4.64886 20.2361C4.30928 19.9893 4.01065 19.6907 3.76393 19.3511C3 18.2997 3 16.7998 3 13.8V10.2Z" stroke="#292556" stroke-width="1.5" stroke-linejoin="round"/>
<path d="M16 12C16 14.2091 14.2091 16 12 16C9.79086 16 8 14.2091 8 12C8 9.79086 9.79086 8 12 8C14.2091 8 16 9.79086 16 12Z" stroke="#292556" stroke-width="1.5" stroke-linejoin="round"/>
</svg>
