<svg width="24" height="24" viewBox="0 0 24 24" fill="none" xmlns="http://www.w3.org/2000/svg">
<path d="M10.0042 17.7195V17.7195C9.63874 18.7034 10.3665 19.75 11.416 19.75H18.0397C18.5872 19.75 18.8609 19.75 19.0645 19.7162C20.4518 19.4855 21.376 18.1564 21.1091 16.7756C21.07 16.573 20.9747 16.3164 20.784 15.8031V15.8031C20.6253 15.3759 20.546 15.1623 20.4537 14.9759C19.8451 13.7459 18.6484 12.9139 17.2836 12.7716C17.0767 12.75 16.8488 12.75 16.3931 12.75H14.6075C14.3945 12.75 14.288 12.75 14.1821 12.7556C13.9157 12.7697 13.6513 12.8105 13.393 12.8773C13.2904 12.9038 13.1889 12.9358 12.9857 13V13M8.33008 8.25C7.22551 8.25 6.33008 7.35457 6.33008 6.25C6.33008 5.14543 7.22551 4.25 8.33008 4.25C9.43465 4.25 10.3301 5.14543 10.3301 6.25C10.3301 7.35457 9.43465 8.25 8.33008 8.25ZM15.8301 10.25C14.7255 10.25 13.8301 9.35457 13.8301 8.25C13.8301 7.14543 14.7255 6.25 15.8301 6.25C16.9346 6.25 17.8301 7.14543 17.8301 8.25C17.8301 9.35457 16.9346 10.25 15.8301 10.25ZM5.96032 17.75H10.5397C11.0872 17.75 11.3609 17.75 11.5645 17.7162C12.9518 17.4855 13.876 16.1564 13.6091 14.7756C13.57 14.573 13.4747 14.3164 13.284 13.8031V13.8031C13.1253 13.3759 13.046 13.1623 12.9537 12.9759C12.3451 11.7459 11.1484 10.9139 9.78358 10.7716C9.5767 10.75 9.34883 10.75 8.89307 10.75H7.60693C7.15117 10.75 6.9233 10.75 6.71642 10.7716C5.35155 10.9139 4.15492 11.7459 3.54627 12.9759C3.45401 13.1623 3.37467 13.3759 3.21598 13.8031V13.8031C3.02535 14.3164 2.93003 14.573 2.89087 14.7756C2.62401 16.1564 3.54819 17.4855 4.9355 17.7162C5.13908 17.75 5.41283 17.75 5.96032 17.75Z" stroke="#292556" stroke-width="1.5" stroke-linejoin="round"/>
</svg>
