<svg width="24" height="24" viewBox="0 0 24 24" fill="none" xmlns="http://www.w3.org/2000/svg">
<path d="M12 12L6 12M12 12L12 8M12 12L18 12M6 12L6 16M6 12H3M18 12V16M18 12H21" stroke="#292556" stroke-width="1.5" stroke-linecap="round" stroke-linejoin="round"/>
<path d="M7.65 20C8.21246 20 8.49369 20 8.69084 19.8568C8.75451 19.8105 8.8105 19.7545 8.85676 19.6908C9 19.4937 9 19.2125 9 18.65V17.35C9 16.7875 9 16.5063 8.85676 16.3092C8.8105 16.2455 8.75451 16.1895 8.69084 16.1432C8.49369 16 8.21246 16 7.65 16H4.35C3.78754 16 3.50631 16 3.30916 16.1432C3.24549 16.1895 3.1895 16.2455 3.14324 16.3092C3 16.5063 3 16.7875 3 17.35V18.65C3 19.2125 3 19.4937 3.14324 19.6908C3.1895 19.7545 3.24549 19.8105 3.30916 19.8568C3.50631 20 3.78754 20 4.35 20H7.65Z" stroke="#292556" stroke-width="1.5" stroke-linejoin="round"/>
<path d="M13.65 8C14.2125 8 14.4937 8 14.6908 7.85676C14.7545 7.8105 14.8105 7.75451 14.8568 7.69084C15 7.49369 15 7.21246 15 6.65V5.35C15 4.78754 15 4.50631 14.8568 4.30916C14.8105 4.24549 14.7545 4.1895 14.6908 4.14324C14.4937 4 14.2125 4 13.65 4H10.35C9.78754 4 9.50631 4 9.30916 4.14324C9.24549 4.1895 9.1895 4.24549 9.14324 4.30916C9 4.50631 9 4.78754 9 5.35V6.65C9 7.21246 9 7.49369 9.14324 7.69084C9.1895 7.75451 9.24549 7.8105 9.30916 7.85676C9.50631 8 9.78754 8 10.35 8H13.65Z" stroke="#292556" stroke-width="1.5" stroke-linejoin="round"/>
<path d="M19.65 20C20.2125 20 20.4937 20 20.6908 19.8568C20.7545 19.8105 20.8105 19.7545 20.8568 19.6908C21 19.4937 21 19.2125 21 18.65V17.35C21 16.7875 21 16.5063 20.8568 16.3092C20.8105 16.2455 20.7545 16.1895 20.6908 16.1432C20.4937 16 20.2125 16 19.65 16H16.35C15.7875 16 15.5063 16 15.3092 16.1432C15.2455 16.1895 15.1895 16.2455 15.1432 16.3092C15 16.5063 15 16.7875 15 17.35V18.65C15 19.2125 15 19.4937 15.1432 19.6908C15.1895 19.7545 15.2455 19.8105 15.3092 19.8568C15.5063 20 15.7875 20 16.35 20H19.65Z" stroke="#292556" stroke-width="1.5" stroke-linejoin="round"/>
</svg>
