<svg width="24" height="24" viewBox="0 0 24 24" fill="none" xmlns="http://www.w3.org/2000/svg">
<path d="M9.5 5.5V8.35959C9.5 8.44753 9.45686 8.52987 9.38456 8.57992L3.6987 12.5163C3.26111 12.8192 3 13.3176 3 13.8498C3 14.9274 4.03137 15.7053 5.06747 15.4093L9.66667 14.0952C9.83371 14.0475 10 14.1729 10 14.3467V16.6272C10 16.7905 10 16.8721 9.97553 16.9474C9.96743 16.9723 9.95739 16.9965 9.9455 17.0199C9.90955 17.0904 9.85183 17.1482 9.7364 17.2636L8.2636 18.7364C8.14817 18.8518 8.09045 18.9096 8.0545 18.9801C8.04261 19.0035 8.03257 19.0277 8.02447 19.0526C8 19.1279 8 19.2095 8 19.3728V19.8762C8 20.5085 8 20.8247 8.17067 20.9741C8.22428 21.021 8.2873 21.056 8.35551 21.0765C8.57266 21.1421 8.84077 20.9745 9.377 20.6394L11.523 19.2981C11.7286 19.1696 11.8313 19.1054 11.9443 19.0927C11.9813 19.0886 12.0187 19.0886 12.0557 19.0927C12.1687 19.1054 12.2714 19.1696 12.477 19.2981L14.623 20.6394C15.1592 20.9745 15.4273 21.1421 15.6445 21.0765C15.7127 21.056 15.7757 21.021 15.8293 20.9741C16 20.8247 16 20.5085 16 19.8762V19.3728C16 19.2095 16 19.1279 15.9755 19.0526C15.9674 19.0277 15.9574 19.0035 15.9455 18.9801C15.9096 18.9096 15.8518 18.8518 15.7364 18.7364L14.2636 17.2636C14.1482 17.1482 14.0904 17.0904 14.0545 17.0199C14.0426 16.9965 14.0326 16.9723 14.0245 16.9474C14 16.8721 14 16.7905 14 16.6272V14.3467C14 14.1729 14.1663 14.0475 14.3333 14.0952L18.9325 15.4093C19.9686 15.7053 21 14.9274 21 13.8498C21 13.3176 20.7389 12.8192 20.3013 12.5163L14.6154 8.57992C14.5431 8.52987 14.5 8.44753 14.5 8.35959V5.5C14.5 4.11929 13.3807 3 12 3C10.6193 3 9.5 4.11929 9.5 5.5Z" stroke="#292556" stroke-width="1.5" stroke-linejoin="round"/>
</svg>
