<svg width="24" height="24" viewBox="0 0 24 24" fill="none" xmlns="http://www.w3.org/2000/svg">
<path d="M20.6936 9.66896C21.9801 14.4702 19.1308 19.4052 14.3297 20.6917C9.52846 21.9781 4.59342 19.1289 3.30695 14.3277M20.6936 9.66896C19.4071 4.86776 14.4721 2.01852 9.67091 3.305C4.86971 4.59147 2.02047 9.5265 3.30695 14.3277M20.6936 9.66896L14.8981 11.2219M3.30695 14.3277L9.1025 12.7748M15.0003 11.9983C15.0003 13.6552 13.6571 14.9983 12.0003 14.9983C10.3434 14.9983 9.00028 13.6552 9.00028 11.9983C9.00028 10.3415 10.3434 8.99833 12.0003 8.99833C13.6571 8.99833 15.0003 10.3415 15.0003 11.9983Z" stroke="#292556" stroke-width="1.5"/>
</svg>
