<svg width="24" height="24" viewBox="0 0 24 24" fill="none" xmlns="http://www.w3.org/2000/svg">
<path d="M13 19C13 18.4477 12.5523 18 12 18C11.4477 18 11 18.4477 11 19C11 19.5523 11.4477 20 12 20C12.5523 20 13 19.5523 13 19Z" fill="#292556"/>
<path d="M8 8.13741C8 5.85238 9.79086 4 12 4C14.2091 4 16 5.85238 16 8.13741C16 9.51717 15.347 10.7392 14.3433 11.4909C13.7867 11.9077 13.1182 12.1554 12.648 12.6812C12.0712 13.3261 11.9877 14.142 12 15" stroke="#292556" stroke-width="1.5" stroke-linecap="round" stroke-linejoin="round"/>
</svg>
