<svg width="24" height="24" viewBox="0 0 24 24" fill="none" xmlns="http://www.w3.org/2000/svg">
<path d="M10.5 4.5C10.5 3.67157 11.1716 3 12 3V3C12.8284 3 13.5 3.67157 13.5 4.5V4.5C13.5 5.32843 12.8284 6 12 6V6C11.1716 6 10.5 5.32843 10.5 4.5V4.5Z" stroke="#292556" stroke-width="1.5" stroke-linecap="round" stroke-linejoin="round"/>
<path d="M5.63604 7.75736C5.05025 7.17157 5.05025 6.22183 5.63604 5.63604V5.63604C6.22183 5.05025 7.17157 5.05025 7.75736 5.63604V5.63604C8.34315 6.22183 8.34315 7.17157 7.75736 7.75736V7.75736C7.17157 8.34315 6.22183 8.34315 5.63604 7.75736V7.75736Z" stroke="#292556" stroke-width="1.5" stroke-linecap="round" stroke-linejoin="round"/>
<path d="M10.5 19.5C10.5 18.6716 11.1716 18 12 18V18C12.8284 18 13.5 18.6716 13.5 19.5V19.5C13.5 20.3284 12.8284 21 12 21V21C11.1716 21 10.5 20.3284 10.5 19.5V19.5Z" stroke="#292556" stroke-width="1.5" stroke-linecap="round" stroke-linejoin="round"/>
<path d="M16.2426 18.364C15.6569 17.7782 15.6569 16.8284 16.2426 16.2426V16.2426C16.8284 15.6569 17.7782 15.6569 18.364 16.2426V16.2426C18.9497 16.8284 18.9497 17.7782 18.364 18.364V18.364C17.7782 18.9497 16.8284 18.9497 16.2426 18.364V18.364Z" stroke="#292556" stroke-width="1.5" stroke-linecap="round" stroke-linejoin="round"/>
<path d="M3 12C3 11.1716 3.67157 10.5 4.5 10.5V10.5C5.32843 10.5 6 11.1716 6 12V12C6 12.8284 5.32843 13.5 4.5 13.5V13.5C3.67157 13.5 3 12.8284 3 12V12Z" stroke="#292556" stroke-width="1.5" stroke-linecap="round" stroke-linejoin="round"/>
<path d="M5.63604 18.364C5.05025 17.7782 5.05025 16.8284 5.63604 16.2426V16.2426C6.22183 15.6569 7.17157 15.6569 7.75736 16.2426V16.2426C8.34315 16.8284 8.34315 17.7782 7.75736 18.364V18.364C7.17157 18.9497 6.22183 18.9497 5.63604 18.364V18.364Z" stroke="#292556" stroke-width="1.5" stroke-linecap="round" stroke-linejoin="round"/>
<path d="M18 12C18 11.1716 18.6716 10.5 19.5 10.5V10.5C20.3284 10.5 21 11.1716 21 12V12C21 12.8284 20.3284 13.5 19.5 13.5V13.5C18.6716 13.5 18 12.8284 18 12V12Z" stroke="#292556" stroke-width="1.5" stroke-linecap="round" stroke-linejoin="round"/>
<path d="M16.2426 7.75736C15.6569 7.17157 15.6569 6.22183 16.2426 5.63604V5.63604C16.8284 5.05025 17.7782 5.05025 18.364 5.63604V5.63604C18.9497 6.22183 18.9497 7.17157 18.364 7.75736V7.75736C17.7782 8.34315 16.8284 8.34315 16.2426 7.75736V7.75736Z" stroke="#292556" stroke-width="1.5" stroke-linecap="round" stroke-linejoin="round"/>
</svg>
