<svg width="24" height="24" viewBox="0 0 24 24" fill="none" xmlns="http://www.w3.org/2000/svg">
<path d="M11 16L8.5364 18.4636C7.96107 19.0389 7.67341 19.3266 7.71326 19.5782C7.72561 19.6562 7.75622 19.7301 7.8026 19.7939C7.95234 20 8.35916 20 9.17279 20H14.8272C15.6408 20 16.0477 20 16.1974 19.7939C16.2438 19.7301 16.2744 19.6562 16.2867 19.5782C16.3266 19.3266 16.0389 19.0389 15.4636 18.4636L13 16M11 16H8.4C6.15016 16 5.02524 16 4.23664 15.4271C3.98196 15.242 3.75799 15.018 3.57295 14.7634C3 13.9748 3 12.8498 3 10.6V9.4C3 7.15016 3 6.02524 3.57295 5.23664C3.75799 4.98196 3.98196 4.75799 4.23664 4.57295C5.02524 4 6.15016 4 8.4 4H15.6C17.8498 4 18.9748 4 19.7634 4.57295C20.018 4.75799 20.242 4.98196 20.4271 5.23664C21 6.02524 21 7.15016 21 9.4V10.6C21 12.8498 21 13.9748 20.4271 14.7634C20.242 15.018 20.018 15.242 19.7634 15.4271C18.9748 16 17.8498 16 15.6 16H13M11 16H13" stroke="#292556" stroke-width="1.5" stroke-linejoin="round"/>
</svg>
