<svg width="24" height="24" viewBox="0 0 24 24" fill="none" xmlns="http://www.w3.org/2000/svg">
<path d="M18.7083 18C20.1334 16.4077 21 14.3051 21 12C21 7.02944 16.9706 3 12 3C7.02944 3 3 7.02944 3 12C3 14.3051 3.86656 16.4077 5.29168 18M18.7083 18C17.0604 19.8412 14.6655 21 12 21C9.3345 21 6.93964 19.8412 5.29168 18M18.7083 18L18.2426 17.3122C16.8401 15.2408 14.5015 14 12 14V14C9.49848 14 7.15987 15.2408 5.75738 17.3122L5.29168 18M12 11.5C10.6193 11.5 9.5 10.3807 9.5 9C9.5 7.61929 10.6193 6.5 12 6.5C13.3807 6.5 14.5 7.61929 14.5 9C14.5 10.3807 13.3807 11.5 12 11.5Z" stroke="#292556" stroke-width="1.5" stroke-linejoin="round"/>
</svg>
