<svg width="24" height="24" viewBox="0 0 24 24" fill="none" xmlns="http://www.w3.org/2000/svg">
<path d="M5.23802 13.1144C4.40468 12.9847 3.988 12.9199 3.87272 12.6886C3.83709 12.6171 3.8191 12.5381 3.82027 12.4582C3.82406 12.1998 4.17159 11.961 4.86666 11.4833L15.669 4.05978C16.7185 3.33854 17.2432 2.97791 17.5065 3.10847C17.5863 3.14805 17.654 3.20823 17.7028 3.28278C17.8636 3.5287 17.5676 4.09244 16.9755 5.21992L14.6317 9.68363C14.4123 10.1016 14.3026 10.3105 14.3491 10.4958C14.364 10.555 14.3896 10.6109 14.4246 10.6608C14.5342 10.8173 14.7641 10.871 15.2237 10.9784L18.8677 11.8301C19.6653 12.0165 20.0641 12.1097 20.1628 12.3453C20.1933 12.4183 20.2061 12.4974 20.2001 12.5763C20.1808 12.831 19.8317 13.0452 19.1335 13.4736L8.20759 20.1769C7.16169 20.8185 6.63874 21.1394 6.38385 20.9987C6.30646 20.956 6.24177 20.8936 6.19638 20.8177C6.04688 20.5679 6.34918 20.034 6.95378 18.9663L9.21875 14.9662C9.47558 14.5126 9.60399 14.2858 9.55221 14.0891C9.53577 14.0266 9.50737 13.968 9.46861 13.9163C9.34653 13.7536 9.089 13.7136 8.57395 13.6334L5.23802 13.1144Z" stroke="#292556" stroke-width="1.5" stroke-linejoin="round"/>
</svg>
