<svg width="24" height="24" viewBox="0 0 24 24" fill="none" xmlns="http://www.w3.org/2000/svg">
<path d="M21 13.8V10.4444C21 10.0317 21 9.82536 20.9848 9.65138C20.8156 7.71759 19.2824 6.18441 17.3486 6.01522C17.1746 6 16.9683 6 16.5556 6H16.3333C16.1492 6 16 5.85076 16 5.66667C16 4.19391 14.8061 3 13.3333 3H10.6667C9.19391 3 8 4.19391 8 5.66667C8 5.85076 7.85076 6 7.66667 6H7.44444C7.03172 6 6.82536 6 6.65138 6.01522C4.71759 6.18441 3.18441 7.71759 3.01522 9.65138C3 9.82536 3 10.0317 3 10.4444V13.8C3 16.7998 3 18.2997 3.76393 19.3511C4.01065 19.6907 4.30928 19.9893 4.64886 20.2361C5.70032 21 7.20021 21 10.2 21H13.8C16.7998 21 18.2997 21 19.3511 20.2361C19.6907 19.9893 19.9893 19.6907 20.2361 19.3511C21 18.2997 21 16.7998 21 13.8Z" stroke="#292556" stroke-width="1.5" stroke-linejoin="round"/>
<path d="M9 13C9 11.3431 10.3431 10 12 10V10C13.6569 10 15 11.3431 15 13V13C15 14.6569 13.6569 16 12 16V16C10.3431 16 9 14.6569 9 13V13Z" stroke="#292556" stroke-width="1.5" stroke-linejoin="round"/>
</svg>
