<svg width="24" height="24" viewBox="0 0 24 24" fill="none" xmlns="http://www.w3.org/2000/svg">
<path d="M8 15L8 17L6.70711 18.2929M12 15V18M12 18C12.8284 18 13.5 18.6716 13.5 19.5C13.5 20.3284 12.8284 21 12 21C11.1716 21 10.5 20.3284 10.5 19.5C10.5 18.6716 11.1716 18 12 18ZM16 15V17L17.2929 18.2929M6.70711 18.2929C6.52614 18.1119 6.27614 18 6 18C5.44771 18 5 18.4477 5 19C5 19.5523 5.44772 20 6 20C6.55228 20 7 19.5523 7 19C7 18.7239 6.88807 18.4739 6.70711 18.2929ZM17.2929 18.2929C17.1119 18.4739 17 18.7239 17 19C17 19.5523 17.4477 20 18 20C18.5523 20 19 19.5523 19 19C19 18.4477 18.5523 18 18 18C17.7239 18 17.4739 18.1119 17.2929 18.2929ZM7.61091 4.61091C9.7588 2.46303 13.2412 2.46303 15.3891 4.61091C16.3455 5.56738 16.8761 6.78847 16.9807 8.03851C18.0405 7.88038 19.159 8.20925 19.9749 9.02513C21.3417 10.392 21.3417 12.608 19.9749 13.9749C19.2915 14.6583 18.3957 15 17.5 15H5.5C4.86019 15 4.22039 14.7559 3.73223 14.2678C2.75592 13.2915 2.75592 11.7085 3.73223 10.7322C4.41095 10.0535 5.38283 9.84663 6.24026 10.1116C5.66533 8.22939 6.12222 6.09961 7.61091 4.61091Z" stroke="#292556" stroke-width="1.5" stroke-linecap="round" stroke-linejoin="round"/>
</svg>
