<svg width="24" height="24" viewBox="0 0 24 24" fill="none" xmlns="http://www.w3.org/2000/svg">
<path d="M15.4697 15.4697C15.1768 15.7626 15.1768 16.2374 15.4697 16.5303C15.7626 16.8232 16.2374 16.8232 16.5303 16.5303L15.4697 15.4697ZM20 12L20.5303 12.5303C20.671 12.3897 20.75 12.1989 20.75 12C20.75 11.8011 20.671 11.6103 20.5303 11.4697L20 12ZM16.5303 7.46967C16.2374 7.17678 15.7626 7.17678 15.4697 7.46967C15.1768 7.76256 15.1768 8.23744 15.4697 8.53033L16.5303 7.46967ZM8.53033 8.53033C8.82322 8.23744 8.82322 7.76256 8.53033 7.46967C8.23744 7.17678 7.76256 7.17678 7.46967 7.46967L8.53033 8.53033ZM4 12L3.46967 11.4697C3.32902 11.6103 3.25 11.8011 3.25 12C3.25 12.1989 3.32902 12.3897 3.46967 12.5303L4 12ZM7.46967 16.5303C7.76256 16.8232 8.23744 16.8232 8.53033 16.5303C8.82322 16.2374 8.82322 15.7626 8.53033 15.4697L7.46967 16.5303ZM9.27886 18.794C9.16506 19.1922 9.39568 19.6073 9.79396 19.7211C10.1922 19.8349 10.6073 19.6043 10.7211 19.206L9.27886 18.794ZM14.7211 5.20604C14.8349 4.80776 14.6043 4.39265 14.206 4.27886C13.8078 4.16506 13.3927 4.39568 13.2789 4.79396L14.7211 5.20604ZM16.5303 16.5303L20.5303 12.5303L19.4697 11.4697L15.4697 15.4697L16.5303 16.5303ZM20.5303 11.4697L16.5303 7.46967L15.4697 8.53033L19.4697 12.5303L20.5303 11.4697ZM7.46967 7.46967L3.46967 11.4697L4.53033 12.5303L8.53033 8.53033L7.46967 7.46967ZM3.46967 12.5303L7.46967 16.5303L8.53033 15.4697L4.53033 11.4697L3.46967 12.5303ZM10.7211 19.206L14.7211 5.20604L13.2789 4.79396L9.27886 18.794L10.7211 19.206Z" fill="#292556"/>
</svg>
