<svg width="24" height="24" viewBox="0 0 24 24" fill="none" xmlns="http://www.w3.org/2000/svg">
<path d="M12 21.0008C16.6672 21.0008 20.5047 17.4482 20.9557 12.8996L21 11.9976H20.0998C17.7007 11.9698 17.0435 11.7001 16.289 9.08657L16 8L14.9691 8.44468C11.9928 9.50219 10.4875 7.92158 11.5616 4.25708L12 3L10.6751 3.09766C6.33268 3.73833 3 7.48038 3 12.0008C3 16.9714 7.02944 21.0008 12 21.0008Z" stroke="#292556" stroke-width="1.5" stroke-linejoin="round"/>
<path d="M9 8C9 8.55228 8.55228 9 8 9C7.44772 9 7 8.55228 7 8C7 7.44772 7.44772 7 8 7C8.55228 7 9 7.44772 9 8Z" fill="#292556"/>
<path d="M8 13C8 13.5523 7.55228 14 7 14C6.44772 14 6 13.5523 6 13C6 12.4477 6.44772 12 7 12C7.55228 12 8 12.4477 8 13Z" fill="#292556"/>
<path d="M13 12C13 12.5523 12.5523 13 12 13C11.4477 13 11 12.5523 11 12C11 11.4477 11.4477 11 12 11C12.5523 11 13 11.4477 13 12Z" fill="#292556"/>
<path d="M12 17C12 17.5523 11.5523 18 11 18C10.4477 18 10 17.5523 10 17C10 16.4477 10.4477 16 11 16C11.5523 16 12 16.4477 12 17Z" fill="#292556"/>
<path d="M17 16C17 16.5523 16.5523 17 16 17C15.4477 17 15 16.5523 15 16C15 15.4477 15.4477 15 16 15C16.5523 15 17 15.4477 17 16Z" fill="#292556"/>
</svg>
