<svg width="24" height="24" viewBox="0 0 24 24" fill="none" xmlns="http://www.w3.org/2000/svg">
<path d="M14.7968 20.557C14.9305 19.7244 15 18.8703 15 18C15 16.0975 14.668 14.2726 14.0587 12.58M6.90568 19.4205C8.50478 16.4531 11.0136 14.0485 14.0587 12.58M14.0587 12.58C13.6983 11.5789 13.2409 10.6242 12.6979 9.72702M14.0587 12.58C16.1428 11.5749 18.4782 11.0084 20.9451 11.0001M7.3039 4.32082C9.50778 5.66155 11.3621 7.51988 12.6979 9.72702M12.6979 9.72702C10.0208 11.7701 6.67979 12.9877 3.05492 12.9999M12.6979 9.72702C14.5046 8.34824 16.009 6.59349 17.0943 4.57955M21 12C21 16.9706 16.9706 21 12 21C7.02944 21 3 16.9706 3 12C3 7.02944 7.02944 3 12 3C16.9706 3 21 7.02944 21 12Z" stroke="#292556" stroke-width="1.5" stroke-linecap="round" stroke-linejoin="round"/>
</svg>
