<svg width="24" height="24" viewBox="0 0 24 24" fill="none" xmlns="http://www.w3.org/2000/svg">
<path d="M3 9V9C3 7.13895 3 6.20843 3.30148 5.47652C3.70761 4.49058 4.49058 3.70761 5.47652 3.30148C6.20843 3 7.13562 3 8.99 3V3H9M21 9V9C21 7.13895 21 6.20843 20.6985 5.47652C20.2924 4.49058 19.5094 3.70761 18.5235 3.30148C17.7916 3 16.8644 3 15.01 3V3H15M3 15V15C3 16.861 3 17.7916 3.30148 18.5235C3.70761 19.5094 4.49058 20.2924 5.47652 20.6985C6.20843 21 7.13562 21 8.99 21V21H9M21 15V15C21 16.861 21 17.7916 20.6985 18.5235C20.2924 19.5094 19.5094 20.2924 18.5235 20.6985C17.7916 21 16.8644 21 15.01 21V21H15" stroke="#292556" stroke-width="1.5" stroke-linecap="round" stroke-linejoin="round"/>
</svg>
