<svg width="24" height="24" viewBox="0 0 24 24" fill="none" xmlns="http://www.w3.org/2000/svg">
<path d="M13 3V3.6C13 5.84984 13 6.97476 13.573 7.76336C13.758 8.01804 13.982 8.24201 14.2366 8.42705C15.0252 9 16.1502 9 18.4 9L19 9M19 10.2368V15.6C19 17.8498 19 18.9748 18.4271 19.7634C18.242 20.018 18.018 20.242 17.7634 20.4271C16.9748 21 15.8498 21 13.6 21H10.4C8.15016 21 7.02524 21 6.23664 20.4271C5.98196 20.242 5.75799 20.018 5.57295 19.7634C5 18.9748 5 17.8498 5 15.6L5 8.4C5 6.15016 5 5.02524 5.57295 4.23664C5.75799 3.98196 5.98196 3.75799 6.23664 3.57295C7.02524 3 8.15016 3 10.4 3L11.7632 3C12.7428 3 13.2325 3 13.6844 3.14683C13.8339 3.1954 13.9793 3.25563 14.1193 3.32698C14.5427 3.5427 14.889 3.88901 15.5816 4.58162L17.4184 6.41838C18.111 7.111 18.4573 7.45731 18.673 7.88067C18.7444 8.0207 18.8046 8.16612 18.8532 8.31559C19 8.76749 19 9.25724 19 10.2368Z" stroke="#292556" stroke-width="1.5" stroke-linejoin="round"/>
</svg>
