<svg width="24" height="24" viewBox="0 0 24 24" fill="none" xmlns="http://www.w3.org/2000/svg">
<path d="M12 21C14.7857 21 18.5 18.7211 18.5 13.6111C18.5 10.5711 16.1996 7.03882 14.3358 4.67586C13.5045 3.62192 13.0888 3.09495 12.3484 2.95808C12.1437 2.92024 11.837 2.9194 11.6321 2.95611C10.8909 3.08891 10.4744 3.61108 9.64132 4.65541C7.78165 6.98671 5.5 10.4842 5.5 13.6111C5.5 18.8889 9.21429 21 12 21ZM12 21C13.2857 21 15 19.9205 15 17.5C15 16.113 14.0149 14.5096 13.1737 13.3933C12.7635 12.8488 12.5583 12.5766 12.1783 12.5047C12.0743 12.485 11.9154 12.4846 11.8114 12.5038C11.431 12.5738 11.2256 12.8437 10.8147 13.3835C9.97608 14.4853 9 16.074 9 17.5C9 20 10.7143 21 12 21Z" stroke="#292556" stroke-width="1.5" stroke-linejoin="round"/>
</svg>
