<svg width="24" height="24" viewBox="0 0 24 24" fill="none" xmlns="http://www.w3.org/2000/svg">
<path d="M3 10.4C3 8.15016 3 7.02524 3.57295 6.23664C3.75799 5.98196 3.98196 5.75799 4.23664 5.57295C5.02524 5 6.15016 5 8.4 5H9.39922C9.94112 5 10.2121 5 10.4724 5.04625C10.7912 5.10289 11.0988 5.21077 11.3831 5.3657C11.6153 5.49221 11.8268 5.66148 12.25 6V6C12.6732 6.33852 12.8847 6.50779 13.1169 6.6343C13.4012 6.78923 13.7088 6.89711 14.0276 6.95375C14.2879 7 14.5589 7 15.1008 7H15.6C17.8498 7 18.9748 7 19.7634 7.57295C20.018 7.75799 20.242 7.98196 20.4271 8.23664C21 9.02524 21 10.1502 21 12.4V13.6C21 15.8498 21 16.9748 20.4271 17.7634C20.242 18.018 20.018 18.242 19.7634 18.4271C18.9748 19 17.8498 19 15.6 19H8.4C6.15016 19 5.02524 19 4.23664 18.4271C3.98196 18.242 3.75799 18.018 3.57295 17.7634C3 16.9748 3 15.8498 3 13.6V10.4Z" stroke="#292556" stroke-width="1.5" stroke-linejoin="round"/>
</svg>
