<svg width="24" height="24" viewBox="0 0 24 24" fill="none" xmlns="http://www.w3.org/2000/svg">
<path d="M12 21C16.9706 21 21 16.9706 21 12C21 10.7586 20.7487 9.5759 20.2941 8.50001M12 21C7.02944 21 3 16.9706 3 12C3 10.7586 3.25134 9.57588 3.70591 8.49999M12 21C14.412 19.3855 16 15.1204 16 12C16 8.87958 14.412 4.61452 12 3M12 21C9.58803 19.3855 8 15.1204 8 12C8 8.87958 9.58803 4.61452 12 3M12 3C8.27085 3 5.07143 5.26805 3.70591 8.49999M12 3C15.7292 3 18.9286 5.26806 20.2941 8.50001M3.70591 8.49999C5.07143 11.7319 8.27085 14 12 14C15.7292 14 18.9286 11.7319 20.2941 8.50001" stroke="#292556" stroke-width="1.5" stroke-linejoin="round"/>
</svg>
