<svg width="24" height="24" viewBox="0 0 24 24" fill="none" xmlns="http://www.w3.org/2000/svg">
<path d="M5.4 10V10C4.22164 10.5356 3.63245 10.8034 3.39766 11.1375C3.034 11.655 3.034 12.345 3.39766 12.8625C3.63245 13.1966 4.22164 13.4644 5.4 14V14M5.4 10V10C4.22164 9.46438 3.63245 9.19657 3.39766 8.86246C3.034 8.34499 3.034 7.65501 3.39766 7.13754C3.63245 6.80343 4.22164 6.53562 5.4 6L10.8827 3.50785C11.3707 3.28607 11.6146 3.17517 11.8722 3.15315C11.9572 3.14587 12.0428 3.14587 12.1278 3.15315C12.3854 3.17517 12.6293 3.28607 13.1173 3.50785L18.6 6C19.7784 6.53562 20.3675 6.80343 20.6023 7.13754C20.966 7.65501 20.966 8.34499 20.6023 8.86246C20.3675 9.19657 19.7784 9.46438 18.6 10V10M5.4 10L10.8827 12.4922C11.3707 12.7139 11.6146 12.8248 11.8722 12.8469C11.9572 12.8541 12.0428 12.8541 12.1278 12.8469C12.3854 12.8248 12.6293 12.7139 13.1173 12.4922L18.6 10M5.4 14V14C4.22164 14.5356 3.63245 14.8034 3.39766 15.1375C3.034 15.655 3.034 16.345 3.39766 16.8625C3.63245 17.1966 4.22164 17.4644 5.4 18L10.8827 20.4922C11.3707 20.7139 11.6146 20.8248 11.8722 20.8469C11.9572 20.8541 12.0428 20.8541 12.1278 20.8469C12.3854 20.8248 12.6293 20.7139 13.1173 20.4922L18.6 18C19.7784 17.4644 20.3675 17.1966 20.6023 16.8625C20.966 16.345 20.966 15.655 20.6023 15.1375C20.3675 14.8034 19.7784 14.5356 18.6 14V14M5.4 14L10.8827 16.4922C11.3707 16.7139 11.6146 16.8248 11.8722 16.8469C11.9572 16.8541 12.0428 16.8541 12.1278 16.8469C12.3854 16.8248 12.6293 16.7139 13.1173 16.4922L18.6 14M18.6 14V14C19.7784 13.4644 20.3675 13.1966 20.6023 12.8625C20.966 12.345 20.966 11.655 20.6023 11.1375C20.3675 10.8034 19.7784 10.5356 18.6 10V10" stroke="#292556" stroke-width="1.5" stroke-linejoin="round"/>
</svg>
