<svg width="24" height="24" viewBox="0 0 24 24" fill="none" xmlns="http://www.w3.org/2000/svg">
<path d="M19 7.5H8.5M19 12H8.5M19 16.5H8.5" stroke="#292556" stroke-width="1.5" stroke-linecap="round" stroke-linejoin="round"/>
<path d="M4.25 7.5C4.25 6.94772 4.69772 6.5 5.25 6.5C5.80228 6.5 6.25 6.94772 6.25 7.5C6.25 8.05228 5.80228 8.5 5.25 8.5C4.69772 8.5 4.25 8.05228 4.25 7.5Z" fill="#292556"/>
<path d="M4.25 12C4.25 11.4477 4.69772 11 5.25 11C5.80228 11 6.25 11.4477 6.25 12C6.25 12.5523 5.80228 13 5.25 13C4.69772 13 4.25 12.5523 4.25 12Z" fill="#292556"/>
<path d="M4.25 16.5C4.25 15.9477 4.69772 15.5 5.25 15.5C5.80228 15.5 6.25 15.9477 6.25 16.5C6.25 17.0523 5.80228 17.5 5.25 17.5C4.69772 17.5 4.25 17.0523 4.25 16.5Z" fill="#292556"/>
</svg>
