<svg width="24" height="24" viewBox="0 0 24 24" fill="none" xmlns="http://www.w3.org/2000/svg">
<path d="M13.791 10.2006L14.2971 12.6265C14.4972 13.5856 14.5972 14.0651 14.8518 14.1629C14.9299 14.1928 15.0143 14.2028 15.0972 14.1917C15.3675 14.1556 15.5759 13.7122 15.9926 12.8255L16.6173 11.4966C16.7457 11.2233 16.8099 11.0867 16.9233 11.0097C16.9602 10.9847 17.0003 10.9646 17.0425 10.9502C17.1722 10.9059 17.32 10.9368 17.6156 10.9984L19.0281 11.2931C20.0868 11.5139 20.6162 11.6244 20.8082 11.4189C20.8669 11.3562 20.9084 11.2794 20.9287 11.196C20.9954 10.9228 20.613 10.5404 19.8483 9.77565L18.6477 8.57505C18.4563 8.38367 18.3606 8.28798 18.3242 8.1684C18.3123 8.1293 18.3052 8.08888 18.3032 8.04806C18.2969 7.92323 18.3544 7.80075 18.4695 7.55581L19.2113 5.9777C19.6016 5.14741 19.7967 4.73227 19.6595 4.50363C19.6173 4.43326 19.5584 4.37437 19.488 4.33215C19.2594 4.19496 18.8442 4.39009 18.0139 4.78034L16.4358 5.5221C16.1909 5.63723 16.0684 5.69479 15.9436 5.68848C15.9028 5.68641 15.8623 5.67935 15.8232 5.66745C15.7037 5.63105 15.608 5.53536 15.4166 5.34398L14.216 4.14337C13.4512 3.37862 13.0689 2.99624 12.7956 3.06291C12.7122 3.08327 12.6355 3.12476 12.5727 3.1834C12.3673 3.37545 12.4777 3.90482 12.6986 4.96356L12.9932 6.37608C13.0549 6.67167 13.0857 6.81947 13.0414 6.9491C13.027 6.99134 13.007 7.03146 12.9819 7.06838C12.9049 7.18171 12.7683 7.24593 12.495 7.37438L11.1661 7.999C10.2794 8.41577 9.83608 8.62416 9.79997 8.89446C9.78889 8.97738 9.7988 9.06175 9.82878 9.13985C9.92651 9.39444 10.4061 9.49447 11.3652 9.69455L13.791 10.2006ZM13.791 10.2006L4.00977 19.9819M19 19.25C18 19.5 17.5 20 17.25 21C17 20 16.5 19.5 15.5 19.25C16.5 19 17 18.5 17.25 17.5C17.5 18.5 18 19 19 19.25ZM8.5 4.75C7.5 5 7 5.5 6.75 6.5C6.5 5.5 6 5 5 4.75C6 4.5 6.5 4 6.75 3C7 4 7.5 4.5 8.5 4.75Z" stroke="#292556" stroke-width="1.5" stroke-linecap="round" stroke-linejoin="round"/>
</svg>
