<svg width="24" height="24" viewBox="0 0 24 24" fill="none" xmlns="http://www.w3.org/2000/svg">
<path d="M10.4188 7.3279C10.2547 8.21884 10.0989 9.92369 10.0989 10.8298C10.0989 11.7359 10.1401 13.47 10.4188 14.3317M10.4188 7.3279L12.2392 5.73296C14.5032 3.74923 15.6352 2.75737 16.6023 2.95C16.9031 3.00992 17.1861 3.13822 17.4294 3.32498C18.2116 3.9254 18.2116 5.43048 18.2116 8.44064V13.1981C18.2116 16.164 18.2116 17.647 17.4367 18.2475C17.1957 18.4343 16.9145 18.5637 16.6159 18.6254C15.6557 18.8235 14.53 17.8598 12.2784 15.9324C11.2442 15.0471 10.4756 14.3869 10.4188 14.3317M10.4188 7.3279C10.0205 7.30003 8.23114 7.29948 6.50966 7.30616C5.08315 7.31169 4.3699 7.31446 3.85881 7.66956C3.66166 7.80655 3.48933 7.97954 3.35312 8.17722C3 8.68969 3 9.40572 3 10.8378V10.8378C3 12.2766 3 12.9959 3.35526 13.5094C3.49231 13.7075 3.66554 13.8806 3.86376 14.0174C4.37762 14.3722 5.0944 14.3714 6.52794 14.37C8.2438 14.3682 10.0219 14.3594 10.4188 14.3317M5.02851 14.3659L5.00646 19.496C5.0029 20.3255 5.67454 20.9996 6.50401 20.9992V20.9992C7.33035 20.9988 8 20.3288 8 19.5024V14.3664M20.2398 6.75412C21.2539 9.81086 21.2539 11.8487 20.2398 14.9054" stroke="#292556" stroke-width="1.5" stroke-linecap="round" stroke-linejoin="round"/>
</svg>
