<svg width="24" height="24" viewBox="0 0 24 24" fill="none" xmlns="http://www.w3.org/2000/svg">
<path d="M10.2062 4.59447L4.41743 9.74006C3.81064 10.2794 3.50724 10.5491 3.37717 10.9008C3.33463 11.0158 3.30635 11.1356 3.29297 11.2574C3.25205 11.6301 3.40281 12.007 3.70433 12.7608L6.3211 19.3028C6.61238 20.0309 6.75802 20.395 7.03306 20.6335C7.12311 20.7115 7.22214 20.7786 7.32805 20.8332C7.65156 21 8.0437 21 8.82799 21H15.172C15.9563 21 16.3484 21 16.6719 20.8332C16.7779 20.7786 16.8769 20.7115 16.9669 20.6335C17.242 20.395 17.3876 20.0309 17.6789 19.3028L20.2957 12.7608L20.2957 12.7608C20.5972 12.007 20.748 11.6301 20.707 11.2574C20.6936 11.1356 20.6654 11.0158 20.6228 10.9008C20.4928 10.5491 20.1894 10.2794 19.5826 9.74006L13.7938 4.59447C13.0387 3.92331 12.6612 3.58772 12.2172 3.52274C12.0732 3.50166 11.9268 3.50166 11.7828 3.52274C11.3388 3.58772 10.9613 3.92331 10.2062 4.59447Z" stroke="#292556" stroke-width="1.5" stroke-linejoin="round"/>
</svg>
