<svg width="24" height="24" viewBox="0 0 24 24" fill="none" xmlns="http://www.w3.org/2000/svg">
<path d="M21 13.1256L21.75 13.1258L21 13.1256ZM18.1995 15.9975L18.1996 16.7475L18.1995 15.9975ZM15.4 13.1267L16.15 13.1269L15.4 13.1267ZM8.6 13.1281L9.35 13.1282L8.6 13.1281ZM5.79945 16L5.7993 15.25L5.79945 16ZM3 13.1292L3.75 13.1294L3 13.1292ZM12.001 8L12.0008 7.25L12.001 8ZM19.9657 10.8969L19.4318 11.4236C19.4488 11.4409 19.4668 11.4574 19.4854 11.4729L19.9657 10.8969ZM4.0351 10.9001L4.51546 11.4761C4.53412 11.4605 4.55202 11.4441 4.56908 11.4268L4.0351 10.9001ZM15.9311 11.4442L16.5437 11.8769C16.6824 11.6805 16.7186 11.4294 16.6409 11.2019C16.5632 10.9743 16.3811 10.7978 16.1512 10.7272L15.9311 11.4442ZM8.06955 11.4457L7.84918 10.7288C7.61939 10.7995 7.43739 10.976 7.35974 11.2035C7.2821 11.431 7.31823 11.682 7.45691 11.8784L8.06955 11.4457ZM20.25 13.1255C20.2498 14.3151 19.3139 15.2473 18.1993 15.2475L18.1996 16.7475C20.1778 16.7471 21.7496 15.1078 21.75 13.1258L20.25 13.1255ZM18.1993 15.2475C17.0849 15.2477 16.1498 14.3163 16.15 13.1269L14.65 13.1266C14.6496 15.1088 16.2212 16.7479 18.1996 16.7475L18.1993 15.2475ZM7.85 13.1279C7.84977 14.3175 6.91393 15.2498 5.7993 15.25L5.7996 16.75C7.77777 16.7496 9.34962 15.1102 9.35 13.1282L7.85 13.1279ZM5.7993 15.25C4.68492 15.2502 3.74977 14.3187 3.75 13.1294L2.25 13.1291C2.24962 15.1113 3.82119 16.7504 5.7996 16.75L5.7993 15.25ZM12.0011 8.75C15.1629 8.74937 17.8777 9.84787 19.4318 11.4236L20.4997 10.3703C18.6054 8.44956 15.4727 7.24931 12.0008 7.25L12.0011 8.75ZM19.4854 11.4729C19.95 11.8603 20.2501 12.454 20.25 13.1255L21.75 13.1258C21.7502 11.9982 21.244 10.9862 20.4461 10.3209L19.4854 11.4729ZM3.75 13.1294C3.75013 12.4578 4.05052 11.8638 4.51546 11.4761L3.55474 10.3241C2.75681 10.9896 2.25021 12.0016 2.25 13.1291L3.75 13.1294ZM4.56908 11.4268C6.12399 9.85022 8.83937 8.75063 12.0011 8.75L12.0008 7.25C8.52895 7.2507 5.396 8.45221 3.50112 10.3735L4.56908 11.4268ZM16.15 13.1269C16.1501 12.6571 16.2969 12.2263 16.5437 11.8769L15.3185 11.0115C14.8973 11.6078 14.6502 12.3395 14.65 13.1266L16.15 13.1269ZM12.0006 11.6214C13.3286 11.6211 14.5847 11.8153 15.711 12.1611L16.1512 10.7272C14.8782 10.3363 13.4733 10.1211 12.0003 10.1214L12.0006 11.6214ZM7.45691 11.8784C7.70347 12.2275 7.85009 12.6582 7.85 13.1279L9.35 13.1282C9.35015 12.3412 9.10328 11.6094 8.68219 11.0131L7.45691 11.8784ZM8.28992 12.1626C9.41636 11.8164 10.6725 11.6216 12.0006 11.6214L12.0003 10.1214C10.5272 10.1216 9.12234 10.3375 7.84918 10.7288L8.28992 12.1626Z" fill="#292556"/>
</svg>
