<svg width="24" height="24" viewBox="0 0 24 24" fill="none" xmlns="http://www.w3.org/2000/svg">
<path d="M15.0684 14.6216C16.6359 13.5768 17.4197 13.0543 17.5614 12.3426C17.6064 12.1169 17.6064 11.8847 17.5615 11.659C17.4198 10.9473 16.6361 10.4248 15.0687 9.37972L11.8974 7.26532C9.99908 5.99961 9.04991 5.36676 8.27397 5.58609C8.03066 5.65487 7.80514 5.77556 7.61294 5.93985C7 6.46377 7 7.60457 7 9.88619L7 14.1145C7 16.3959 7 17.5366 7.61288 18.0605C7.80507 18.2248 8.03057 18.3455 8.27387 18.4143C9.04975 18.6337 9.99889 18.001 11.8972 16.7356L15.0684 14.6216Z" stroke="#292556" stroke-width="1.5" stroke-linejoin="round"/>
</svg>
