<svg width="24" height="24" viewBox="0 0 24 24" fill="none" xmlns="http://www.w3.org/2000/svg">
<path d="M19.2049 4.00197C17.681 4.04453 14.2422 4.40635 11.6438 6.6566L11.6437 6.65661C11.5273 6.75741 11.4691 6.80781 11.4092 6.8367C11.3882 6.84681 11.37 6.85415 11.3479 6.8614C11.2846 6.88213 11.2138 6.88582 11.0721 6.89319H11.0721L7.08371 7.10077C5.68727 7.17346 4.59229 8.32691 4.59229 9.72524C4.59229 11.1331 5.70169 12.2908 7.10824 12.3509L8.07531 12.3922L8.07536 12.3922C8.13721 12.3948 8.16814 12.3961 8.19776 12.401C8.2809 12.4146 8.35925 12.449 8.42553 12.5011C8.44914 12.5196 8.47104 12.5415 8.51484 12.5853L11.412 15.4824C11.4558 15.5262 11.4777 15.5481 11.4962 15.5717C11.5482 15.638 11.5827 15.7164 11.5963 15.7995C11.6012 15.8291 11.6025 15.8601 11.6051 15.922L11.6464 16.889C11.7064 18.2956 12.8642 19.405 14.272 19.405C15.6704 19.405 16.8238 18.31 16.8965 16.9136L17.1041 12.9252C17.1115 12.7835 17.1151 12.7127 17.1359 12.6494C17.1431 12.6273 17.1505 12.6091 17.1606 12.5881C17.1895 12.5281 17.2399 12.4699 17.3407 12.3535L17.3407 12.3535C19.5909 9.75502 19.9527 6.31628 19.9953 4.79233C20.0037 4.49024 20.008 4.33919 19.9096 4.2022C19.8816 4.16321 19.8341 4.11567 19.7951 4.08768C19.6581 3.98931 19.507 3.99353 19.2049 4.00197Z" stroke="#292556" stroke-width="1.5" stroke-linejoin="round"/>
<path d="M4.00001 19.2863C4.00033 19.5351 4.00049 19.6595 4.09585 19.7907C4.1211 19.8254 4.17154 19.8759 4.20628 19.9011C4.33746 19.9965 4.46186 19.9967 4.71067 19.997C5.55794 19.9981 7.02351 19.8381 8.01883 18.8427C8.06919 18.7924 8.11853 18.7397 8.16671 18.6851C8.82013 17.9441 8.53923 16.8549 7.84067 16.1563V16.1563C7.14211 15.4578 6.05288 15.1768 5.31191 15.8303C5.25728 15.8784 5.20459 15.9278 5.15423 15.9782C4.15892 16.9735 3.99891 18.439 4.00001 19.2863Z" stroke="#292556" stroke-width="1.5" stroke-linejoin="round"/>
<path d="M12.0788 11.9177C12.5665 12.4053 13.3571 12.4053 13.8447 11.9177V11.9177C14.3324 11.43 14.3324 10.6394 13.8447 10.1518V10.1518C13.3571 9.66412 12.5665 9.66412 12.0788 10.1518V10.1518C11.5912 10.6394 11.5912 11.43 12.0788 11.9177V11.9177Z" stroke="#292556" stroke-width="1.5" stroke-linejoin="round"/>
</svg>
