<svg width="24" height="24" viewBox="0 0 24 24" fill="none" xmlns="http://www.w3.org/2000/svg">
<path d="M11 9C11 9.82843 10.3284 10.5 9.5 10.5C8.67157 10.5 8 9.82843 8 9C8 8.17157 8.67157 7.5 9.5 7.5C10.3284 7.5 11 8.17157 11 9Z" fill="#292556"/>
<path d="M16 9C16 9.82843 15.3284 10.5 14.5 10.5C13.6716 10.5 13 9.82843 13 9C13 8.17157 13.6716 7.5 14.5 7.5C15.3284 7.5 16 8.17157 16 9Z" fill="#292556"/>
<path d="M7.41797 13.5C8.18953 15.2659 9.95161 16.5 12.0019 16.5C14.0522 16.5 15.8143 15.2659 16.5859 13.5M21 12C21 16.9706 16.9706 21 12 21C7.02944 21 3 16.9706 3 12C3 7.02944 7.02944 3 12 3C16.9706 3 21 7.02944 21 12Z" stroke="#292556" stroke-width="1.5" stroke-linecap="round" stroke-linejoin="round"/>
</svg>
