<svg width="24" height="24" viewBox="0 0 24 24" fill="none" xmlns="http://www.w3.org/2000/svg">
<path d="M3.5 13.5C7.21429 12.5714 9.07143 10.7143 10 7C10.9286 10.7143 12.7857 12.5714 16.5 13.5C12.7857 14.4286 10.9286 16.2857 10 20C9.07143 16.2857 7.21429 14.4286 3.5 13.5Z" stroke="#292556" stroke-width="1.5" stroke-linejoin="round"/>
<path d="M13.5 6.5C15.5 6 16.5 5 17 3C17.5 5 18.5 6 20.5 6.5C18.5 7 17.5 8 17 10C16.5 8 15.5 7 13.5 6.5Z" stroke="#292556" stroke-width="1.5" stroke-linejoin="round"/>
<path d="M14 19.25C15 19 15.5 18.5 15.75 17.5C16 18.5 16.5 19 17.5 19.25C16.5 19.5 16 20 15.75 21C15.5 20 15 19.5 14 19.25Z" stroke="#292556" stroke-width="1.5" stroke-linejoin="round"/>
</svg>
