<svg width="24" height="24" viewBox="0 0 24 24" fill="none" xmlns="http://www.w3.org/2000/svg">
<path d="M9.16318 6.10911C9.55023 5.00272 9.74376 4.44953 9.91716 4.18832C10.9061 2.69854 13.0939 2.69854 14.0828 4.18832C14.2562 4.44953 14.459 5.02923 14.8646 6.18864V6.18864C14.9494 6.43097 14.9918 6.55214 15.0375 6.65302C15.4095 7.47487 16.1954 8.03255 17.094 8.11231C17.2043 8.1221 17.326 8.1221 17.5695 8.1221H17.8139C18.5159 8.1221 18.8669 8.1221 19.0423 8.14706C21.1102 8.4415 21.9266 10.9919 20.414 12.4325C20.2858 12.5546 20 12.7584 19.4285 13.1661V13.1661C19.2652 13.2825 19.1836 13.3407 19.1141 13.3983C18.3597 14.0232 18.0398 15.0311 18.2957 15.9767C18.3193 16.0638 18.3535 16.1616 18.4219 16.3571V16.3571C18.7101 17.1811 18.8543 17.5931 18.8895 17.8085C19.211 19.772 17.2216 21.306 15.4044 20.4958C15.205 20.4069 14.8545 20.1704 14.1536 19.6975L13.6958 19.3885C13.4102 19.1958 13.2674 19.0995 13.1264 19.0283C12.418 18.6708 11.582 18.6708 10.8736 19.0283C10.7326 19.0995 10.5898 19.1958 10.3042 19.3885L9.86663 19.6838C9.14941 20.1678 8.7908 20.4098 8.58634 20.5C6.77429 21.299 4.79678 19.7742 5.10885 17.8186C5.14406 17.5979 5.29142 17.1767 5.58615 16.3342V16.3342C5.65538 16.1363 5.69 16.0373 5.71386 15.9487C5.96494 15.0169 5.65719 14.0237 4.92318 13.397C4.85343 13.3375 4.77156 13.2774 4.60782 13.1571V13.1571C4.0386 12.7392 3.75399 12.5303 3.62516 12.4034C2.15304 10.9537 2.97497 8.44543 5.01955 8.14812C5.19848 8.1221 5.55156 8.1221 6.25772 8.1221H6.43867C6.67434 8.1221 6.79218 8.1221 6.89896 8.11293C7.80283 8.03528 8.5937 7.47408 8.96545 6.64656C9.00937 6.54879 9.04828 6.43756 9.1261 6.21511L9.16318 6.10911Z" stroke="#292556" stroke-width="1.5" stroke-linejoin="round"/>
</svg>
