<svg width="24" height="24" viewBox="0 0 24 24" fill="none" xmlns="http://www.w3.org/2000/svg">
<path d="M5.99999 5.87559V5.11445C5.99999 4.49396 5.49698 3.99095 4.87649 3.99095V3.99095C4.256 3.99095 3.75299 4.49396 3.75299 5.11445V13.8735C3.75299 14.494 4.256 14.997 4.87649 14.997V14.997C5.49698 14.997 5.99999 14.494 5.99999 13.8735V12.9783M5.99999 5.87559L6.74937 5.16943C7.30254 4.64817 7.57913 4.38753 7.91803 4.20252C8.02623 4.14345 8.15106 4.08534 8.26592 4.04056C8.62566 3.90032 8.98515 3.85854 9.70413 3.77498C10.7568 3.65264 12.0778 3.52041 13 3.50238C13.6935 3.48882 14.51 3.53455 15.2986 3.60281C16.5835 3.71405 17.2259 3.76967 17.8253 4.13346C18.0096 4.24532 18.2141 4.40413 18.3681 4.555C18.8689 5.04565 19.101 5.70897 19.565 7.0356L20.7594 10.4498C21.3845 12.2368 20.1405 14.1293 18.2522 14.2643L16.268 14.4061C15.5951 14.4542 15.1171 15.0817 15.2494 15.7432V15.7432C15.627 17.0631 15.6261 18.1984 15.2466 19.3896C15.0231 20.0911 14.3391 20.5 13.6178 20.5C13.1127 20.5 12.6322 20.2837 12.4283 19.8111C12.0289 18.8853 11.3546 16.9816 10.3717 15.9764C8.9109 14.4824 7.83792 13.614 5.99999 12.9783M5.99999 5.87559V12.9783" stroke="#292556" stroke-width="1.5" stroke-linecap="round" stroke-linejoin="round"/>
</svg>
