<svg width="24" height="24" viewBox="0 0 24 24" fill="none" xmlns="http://www.w3.org/2000/svg">
<path d="M3 12C3 8.41015 5.91015 5.5 9.5 5.5L14.5 5.5C18.0899 5.5 21 8.41015 21 12V12C21 15.5899 18.0899 18.5 14.5 18.5H9.5C5.91015 18.5 3 15.5899 3 12V12Z" stroke="#292556" stroke-width="1.5" stroke-linejoin="round"/>
<path d="M6.5 12C6.5 10.3431 7.84315 9 9.5 9V9C11.1569 9 12.5 10.3431 12.5 12V12C12.5 13.6569 11.1569 15 9.5 15V15C7.84315 15 6.5 13.6569 6.5 12V12Z" stroke="#292556" stroke-width="1.5" stroke-linejoin="round"/>
</svg>
