<svg width="24" height="24" viewBox="0 0 24 24" fill="none" xmlns="http://www.w3.org/2000/svg">
<mask id="path-1-inside-1_1_2377" fill="white">
<path d="M15 8.75C15 9.16421 14.6642 9.5 14.25 9.5C13.8358 9.5 13.5 9.16421 13.5 8.75C13.5 8.33579 13.8358 8 14.25 8C14.6642 8 15 8.33579 15 8.75Z"/>
</mask>
<path d="M15 8.75C15 9.16421 14.6642 9.5 14.25 9.5C13.8358 9.5 13.5 9.16421 13.5 8.75C13.5 8.33579 13.8358 8 14.25 8C14.6642 8 15 8.33579 15 8.75Z" fill="#292556"/>
<path d="M13.5 8.75C13.5 8.33579 13.8358 8 14.25 8V11C15.4926 11 16.5 9.99264 16.5 8.75H13.5ZM14.25 8C14.6642 8 15 8.33579 15 8.75H12C12 9.99264 13.0074 11 14.25 11V8ZM15 8.75C15 9.16421 14.6642 9.5 14.25 9.5V6.5C13.0074 6.5 12 7.50736 12 8.75H15ZM14.25 9.5C13.8358 9.5 13.5 9.16421 13.5 8.75H16.5C16.5 7.50736 15.4926 6.5 14.25 6.5V9.5Z" fill="#292556" mask="url(#path-1-inside-1_1_2377)"/>
<path d="M11.5 9.5C11.9142 9.5 12.25 9.16421 12.25 8.75C12.25 8.33579 11.9142 8 11.5 8V9.5ZM6.5 8C6.08579 8 5.75 8.33579 5.75 8.75C5.75 9.16421 6.08579 9.5 6.5 9.5V8ZM18 9.5L17.6646 8.82918C17.4105 8.95622 17.25 9.21592 17.25 9.5H18ZM18 14.5H17.25C17.25 14.7841 17.4105 15.0438 17.6646 15.1708L18 14.5ZM20.6868 15.1089L20.1717 14.5637L20.6868 15.1089ZM20.343 15.3213L20.0858 14.6168L20.343 15.3213ZM4.77772 18.3259L4.36104 18.9495L4.77772 18.3259ZM3.67412 17.2223L3.05052 17.639L3.67412 17.2223ZM17.3259 17.2223L16.7023 16.8056L17.3259 17.2223ZM16.2223 18.3259L16.639 18.9495L16.2223 18.3259ZM16.2223 5.67412L15.8056 6.29772L16.2223 5.67412ZM17.3259 6.77772L16.7023 7.1944L17.3259 6.77772ZM20.343 8.67871L20.0858 9.3832L20.343 8.67871ZM20.6868 8.89115L20.1717 9.43631L20.6868 8.89115ZM11.5 8L6.5 8V9.5L11.5 9.5V8ZM10 5.75H11V4.25H10V5.75ZM11 18.25H10V19.75H11V18.25ZM18.3354 10.1708L18.7304 9.97331L18.0596 8.63167L17.6646 8.82918L18.3354 10.1708ZM20.25 10.9125V13.0875H21.75V10.9125H20.25ZM18.7304 14.0267L18.3354 13.8292L17.6646 15.1708L18.0596 15.3683L18.7304 14.0267ZM18.75 14.5V9.5H17.25V14.5H18.75ZM20.25 13.0875C20.25 13.6824 20.2487 14.0598 20.2162 14.3287C20.1841 14.595 20.1363 14.5971 20.1717 14.5637L21.2018 15.654C21.5504 15.3246 21.6593 14.8913 21.7054 14.5084C21.7513 14.1283 21.75 13.6429 21.75 13.0875H20.25ZM18.0596 15.3683C18.5563 15.6167 18.9899 15.8349 19.3504 15.9639C19.7135 16.0938 20.1498 16.1903 20.6003 16.0258L20.0858 14.6168C20.1315 14.6001 20.1082 14.6419 19.8557 14.5516C19.6006 14.4603 19.2625 14.2927 18.7304 14.0267L18.0596 15.3683ZM20.1717 14.5637C20.147 14.5871 20.1177 14.6051 20.0858 14.6168L20.6003 16.0258C20.824 15.9441 21.0287 15.8176 21.2018 15.654L20.1717 14.5637ZM10 18.25C8.57993 18.25 7.57133 18.2491 6.78975 18.1696C6.02071 18.0914 5.55507 17.9433 5.1944 17.7023L4.36104 18.9495C5.00926 19.3826 5.7503 19.5716 6.63794 19.6619C7.51305 19.7509 8.61115 19.75 10 19.75V18.25ZM2.25 12C2.25 13.3889 2.24909 14.4869 2.33812 15.3621C2.42841 16.2497 2.61739 16.9907 3.05052 17.639L4.29772 16.8056C4.05673 16.4449 3.90865 15.9793 3.83041 15.2102C3.75091 14.4287 3.75 13.4201 3.75 12H2.25ZM5.1944 17.7023C4.83953 17.4652 4.53484 17.1605 4.29772 16.8056L3.05052 17.639C3.39707 18.1576 3.84239 18.6029 4.36104 18.9495L5.1944 17.7023ZM17.25 12C17.25 13.4201 17.2491 14.4287 17.1696 15.2102C17.0914 15.9793 16.9433 16.4449 16.7023 16.8056L17.9495 17.639C18.3826 16.9907 18.5716 16.2497 18.6619 15.3621C18.7509 14.4869 18.75 13.3889 18.75 12H17.25ZM11 19.75C12.3889 19.75 13.4869 19.7509 14.3621 19.6619C15.2497 19.5716 15.9907 19.3826 16.639 18.9495L15.8056 17.7023C15.4449 17.9433 14.9793 18.0914 14.2102 18.1696C13.4287 18.2491 12.4201 18.25 11 18.25V19.75ZM16.7023 16.8056C16.4652 17.1605 16.1605 17.4652 15.8056 17.7023L16.639 18.9495C17.1576 18.6029 17.6029 18.1576 17.9495 17.639L16.7023 16.8056ZM11 5.75C12.4201 5.75 13.4287 5.75091 14.2102 5.83041C14.9793 5.90865 15.4449 6.05673 15.8056 6.29772L16.639 5.05052C15.9907 4.61739 15.2497 4.42841 14.3621 4.33812C13.4869 4.24909 12.3889 4.25 11 4.25V5.75ZM18.75 12C18.75 10.6111 18.7509 9.51305 18.6619 8.63794C18.5716 7.7503 18.3826 7.00926 17.9495 6.36104L16.7023 7.1944C16.9433 7.55507 17.0914 8.02071 17.1696 8.78975C17.2491 9.57133 17.25 10.5799 17.25 12H18.75ZM15.8056 6.29772C16.1605 6.53484 16.4652 6.83953 16.7023 7.1944L17.9495 6.36104C17.6029 5.84239 17.1576 5.39707 16.639 5.05052L15.8056 6.29772ZM18.7304 9.97331C19.2625 9.70727 19.6006 9.53969 19.8557 9.44843C20.1082 9.35809 20.1315 9.3999 20.0858 9.3832L20.6003 7.97421C20.1498 7.8097 19.7135 7.90619 19.3504 8.0361C18.9899 8.16508 18.5563 8.38331 18.0596 8.63167L18.7304 9.97331ZM21.75 10.9125C21.75 10.3571 21.7513 9.87175 21.7054 9.49161C21.6593 9.10875 21.5504 8.67535 21.2018 8.34598L20.1717 9.43631C20.1363 9.40289 20.1841 9.40503 20.2162 9.67128C20.2487 9.94025 20.25 10.3176 20.25 10.9125H21.75ZM20.0858 9.3832C20.1177 9.39487 20.147 9.41295 20.1717 9.43631L21.2018 8.34598C21.0287 8.18241 20.824 8.05591 20.6003 7.97421L20.0858 9.3832ZM10 4.25C8.61115 4.25 7.51305 4.24909 6.63794 4.33812C5.7503 4.42841 5.00926 4.61739 4.36104 5.05052L5.1944 6.29772C5.55507 6.05673 6.02071 5.90865 6.78975 5.83041C7.57133 5.75091 8.57993 5.75 10 5.75V4.25ZM3.75 12C3.75 10.5799 3.75091 9.57133 3.83041 8.78975C3.90865 8.02071 4.05673 7.55507 4.29772 7.1944L3.05052 6.36104C2.61739 7.00926 2.42841 7.7503 2.33812 8.63794C2.24909 9.51305 2.25 10.6111 2.25 12H3.75ZM4.36104 5.05052C3.84239 5.39707 3.39707 5.84239 3.05052 6.36104L4.29772 7.1944C4.53484 6.83953 4.83953 6.53484 5.1944 6.29772L4.36104 5.05052Z" fill="#292556"/>
</svg>
