<svg width="24" height="24" viewBox="0 0 24 24" fill="none" xmlns="http://www.w3.org/2000/svg">
<path d="M3 8C5 5.90088 8.0418 4 12 4C15.9582 4 19 5.90088 21 8M5.5 11C7.13825 9.40451 9.44477 8.19825 12 8.19825C14.5552 8.19825 16.8618 9.40451 18.5 11M8 14C9.06151 13.0028 10.4633 12.3965 12 12.3965C13.5367 12.3965 14.9385 13.0028 16 14M14 18C14 19.1046 13.1046 20 12 20C10.8954 20 10 19.1046 10 18C10 16.8954 10.8954 16 12 16C13.1046 16 14 16.8954 14 18Z" stroke="#292556" stroke-width="1.5" stroke-linecap="round" stroke-linejoin="round"/>
</svg>
