<svg xmlns="http://www.w3.org/2000/svg" viewBox="0 0 19.5 19.5"><defs><style>.cls-1{fill:none;stroke:#a0c3e1;stroke-linecap:round;stroke-linejoin:round;stroke-width:1.5px;}</style></defs><g id="Layer_2" data-name="Layer 2"><g id="Layer_1-2" data-name="Layer 1"><path class="cls-1" d="M5.75,12.75v2L4.46,16m5.29-3.29v3m0,0a1.5,1.5,0,1,1-1.5,1.5A1.5,1.5,0,0,1,9.75,15.75Zm4-3v2L15,16M4.46,16a1,1,0,1,0,.29.71A1,1,0,0,0,4.46,16ZM15,16a1,1,0,1,0,.71-.29A1,1,0,0,0,15,16ZM5.36,2.36a5.5,5.5,0,0,1,9.37,3.43,3.5,3.5,0,1,1,.52,7h-12A2.49,2.49,0,0,1,1.48,12,2.5,2.5,0,0,1,4,7.86,5.51,5.51,0,0,1,5.36,2.36Z"/></g></g></svg>