<svg xmlns="http://www.w3.org/2000/svg" viewBox="0 0 19.5 19.5"><defs><style>.cls-1{fill:none;stroke:#a0c3e1;stroke-linecap:round;stroke-linejoin:round;stroke-width:1.5px;}.cls-2{fill:#a0c3e1;}</style></defs><g id="Layer_2" data-name="Layer 2"><g id="Layer_1-2" data-name="Layer 1"><path class="cls-1" d="M5.17,11.25a5,5,0,0,0,9.17,0m4.41-1.5a9,9,0,1,1-9-9A9,9,0,0,1,18.75,9.75Z"/><path class="cls-2" d="M6.64,5.51a3.42,3.42,0,0,1,.19-.44.5.5,0,0,1,.78,0,2.15,2.15,0,0,1,.2.44v0l0,.07a.5.5,0,0,0,.42.29h.3a.5.5,0,0,1,.27.91l-.07,0h0l0,0a.5.5,0,0,0-.19.58v0a.69.69,0,0,1,.06.18A.5.5,0,0,1,8,8.26l-.16-.1L7.56,8l-.14-.08a.53.53,0,0,0-.39,0L6.89,8l-.23.14-.16.1a.5.5,0,0,1-.7-.58l.07-.18v0a.51.51,0,0,0-.19-.58h0l-.07-.05a.5.5,0,0,1,.27-.9h.3a.47.47,0,0,0,.41-.29.15.15,0,0,0,0-.07Z"/><path class="cls-2" d="M11.64,5.51a3.42,3.42,0,0,1,.19-.44.5.5,0,0,1,.78,0,2.15,2.15,0,0,1,.2.44v0l0,.07a.5.5,0,0,0,.42.29h.3a.5.5,0,0,1,.27.91l-.07,0h0l0,0a.5.5,0,0,0-.19.58v0a.69.69,0,0,1,.06.18.5.5,0,0,1-.69.58l-.16-.1L12.56,8l-.14-.08a.53.53,0,0,0-.39,0L11.89,8l-.23.14-.16.1a.5.5,0,0,1-.7-.58l.07-.18v0a.51.51,0,0,0-.19-.58h0l-.07-.05a.5.5,0,0,1,.27-.9h.3a.47.47,0,0,0,.41-.29.15.15,0,0,0,0-.07Z"/></g></g></svg>