<svg xmlns="http://www.w3.org/2000/svg" viewBox="0 0 19.5 19.5"><defs><style>.cls-1{fill:none;stroke:#a0c3e1;stroke-linecap:round;stroke-linejoin:round;stroke-width:1.5px;}</style></defs><g id="Layer_2" data-name="Layer 2"><g id="Layer_1-2" data-name="Layer 1"><path class="cls-1" d="M14.75,5.75h0a5,5,0,0,0-5-5h0a5,5,0,0,0-5,5h0m5,7.5h0a2,2,0,0,0,2-2h0a2,2,0,0,0-2-2h0a2,2,0,0,0-2,2h0a2,2,0,0,0,2,2Zm0,0v2.5m-2.5,3h5c2.33,0,3.5,0,4.39-.47a4.17,4.17,0,0,0,1.64-1.64c.47-.89.47-2.06.47-4.39h0c0-2.33,0-3.5-.47-4.39a4.17,4.17,0,0,0-1.64-1.64c-.89-.47-2.06-.47-4.39-.47h-5c-2.33,0-3.5,0-4.39.47A4.17,4.17,0,0,0,1.22,7.86C.75,8.75.75,9.92.75,12.25h0c0,2.33,0,3.5.47,4.39a4.17,4.17,0,0,0,1.64,1.64C3.75,18.75,4.92,18.75,7.25,18.75Z"/></g></g></svg>