<svg xmlns="http://www.w3.org/2000/svg" viewBox="0 0 19.5 18.5"><defs><style>.cls-1{fill:#a0c3e1;}</style></defs><g id="Layer_2" data-name="Layer 2"><g id="Layer_1-2" data-name="Layer 1"><path class="cls-1" d="M17.75,14.75v.75a.76.76,0,0,0,.75-.75Zm-16,0H1a.76.76,0,0,0,.75.75ZM7.64,7.58a.75.75,0,0,0,.25-1,.75.75,0,0,0-1-.25Zm-3.93,3a.75.75,0,1,0,1.45.36ZM2.25,15.5h15V14h-15ZM17,11.75v3h1.5v-3ZM17.75,14h-16v1.5h16ZM2.5,14.75v-3H1v3Zm8-12.5A.76.76,0,0,1,9.75,3V4.5A2.25,2.25,0,0,0,12,2.25ZM9.75,3A.76.76,0,0,1,9,2.25H7.5A2.25,2.25,0,0,0,9.75,4.5ZM9,2.25a.76.76,0,0,1,.75-.75V0A2.25,2.25,0,0,0,7.5,2.25Zm.75-.75a.76.76,0,0,1,.75.75H12A2.25,2.25,0,0,0,9.75,0ZM6.86,6.3a7,7,0,0,0-3.15,4.27l1.45.36A5.52,5.52,0,0,1,7.64,7.58ZM9.75,4.5A7.26,7.26,0,0,1,17,11.75h1.5A8.75,8.75,0,0,0,9.75,3Zm0-1.5A8.75,8.75,0,0,0,1,11.75H2.5A7.26,7.26,0,0,1,9.75,4.5ZM2.25,15.5h15V14h-15Zm15,1.5h-15v1.5h15Zm-15,0a.76.76,0,0,1-.75-.75H0A2.25,2.25,0,0,0,2.25,18.5ZM18,16.25a.76.76,0,0,1-.75.75v1.5a2.25,2.25,0,0,0,2.25-2.25Zm-.75-.75a.76.76,0,0,1,.75.75h1.5A2.25,2.25,0,0,0,17.25,14ZM2.25,14A2.25,2.25,0,0,0,0,16.25H1.5a.76.76,0,0,1,.75-.75Z"/></g></g></svg>