<svg xmlns="http://www.w3.org/2000/svg" viewBox="0 0 15.5 19.4"><defs><style>.cls-1{fill:none;stroke:#027cc5;stroke-linejoin:round;stroke-width:1.5px;}</style></defs><g id="Layer_2" data-name="Layer 2"><g id="Layer_1-2" data-name="Layer 1"><path class="cls-1" d="M.75,6.15c0-2.25,0-3.37.57-4.16A3,3,0,0,1,2,1.32C2.78.75,3.9.75,6.15.75h3.2c2.25,0,3.37,0,4.16.57a3,3,0,0,1,.67.67c.57.79.57,1.91.57,4.16v8.42a10.48,10.48,0,0,1-.16,2.85,2,2,0,0,1-2.94.9A10.82,10.82,0,0,1,9.94,16h0A6.37,6.37,0,0,0,9,14.79a2,2,0,0,0-2.5,0A6.37,6.37,0,0,0,5.56,16h0a10.82,10.82,0,0,1-1.71,2.29,2,2,0,0,1-2.94-.9,10.48,10.48,0,0,1-.16-2.85Z"/></g></g></svg>