<svg xmlns="http://www.w3.org/2000/svg" viewBox="0 0 19.5 19.5"><defs><style>.cls-1{fill:none;stroke:#027cc5;stroke-linecap:round;stroke-linejoin:round;stroke-width:1.5px;}</style></defs><g id="Layer_2" data-name="Layer 2"><g id="Layer_1-2" data-name="Layer 1"><path class="cls-1" d="M13.5,7.25v5m-2.71,0-.69-1.5m-3.89,1.5.69-1.5m0,0,1.6-3.5,1.6,3.5m-3.2,0h3.2m-6.35-6a4,4,0,0,1,4-4,3.89,3.89,0,0,1,2,.54,3.89,3.89,0,0,1,2-.54,4,4,0,0,1,4,4,3.93,3.93,0,0,1-.15,1.09,4,4,0,0,1,0,7.82,3.93,3.93,0,0,1,.15,1.09,4,4,0,0,1-4,4,3.89,3.89,0,0,1-2-.54,3.89,3.89,0,0,1-2,.54,4,4,0,0,1-4-4,3.93,3.93,0,0,1,.15-1.09,4,4,0,0,1,0-7.82A3.93,3.93,0,0,1,3.75,4.75Z"/></g></g></svg>