<svg xmlns="http://www.w3.org/2000/svg" viewBox="0 0 19.5 19.5"><defs><style>.cls-1{fill:none;stroke:#027cc5;stroke-linecap:round;stroke-linejoin:round;stroke-width:1.5px;}</style></defs><g id="Layer_2" data-name="Layer 2"><g id="Layer_1-2" data-name="Layer 1"><path class="cls-1" d="M12.25,7.75h0a2,2,0,0,0-2-2h-.5m0,0h-.5a2,2,0,0,0-2,2h0a2,2,0,0,0,2,2h.5m0-4V4.25m0,1.5v4m0,0h.5a2,2,0,0,1,2,2h0a2,2,0,0,1-2,2h-.5m0-4v4m0,0h-.5a2,2,0,0,1-2-2h0m2.5,2v1.5m9-5.5a9,9,0,1,1-9-9A9,9,0,0,1,18.75,9.75Z"/></g></g></svg>