<svg xmlns="http://www.w3.org/2000/svg" viewBox="0 0 17.5 17.5"><defs><style>.cls-1{fill:none;stroke:#027cc5;stroke-linejoin:round;stroke-width:1.5px;}</style></defs><g id="Layer_2" data-name="Layer 2"><g id="Layer_1-2" data-name="Layer 1"><path class="cls-1" d="M16,.75A12.48,12.48,0,0,0,8.39,3.41h0a1.12,1.12,0,0,1-.23.18l-.06,0a1.31,1.31,0,0,1-.28,0h0l-4,.2a2.63,2.63,0,0,0,0,5.25l1,0H5a.67.67,0,0,1,.23.1l.08.09,2.9,2.89.09.09a.67.67,0,0,1,.1.23.62.62,0,0,0,0,.12l0,1a2.63,2.63,0,0,0,5.25,0l.2-4a1.21,1.21,0,0,1,0-.28.14.14,0,0,1,0-.06,1.12,1.12,0,0,1,.18-.23h0a12.48,12.48,0,0,0,2.66-7.57c0-.3,0-.45-.09-.59L16.55.84C16.41.74,16.26.75,16,.75Z"/><path class="cls-1" d="M.75,16c0,.25,0,.37.1.5a.29.29,0,0,0,.11.11c.13.1.25.1.5.1a4.71,4.71,0,0,0,3.31-1.16l.15-.15a1.86,1.86,0,0,0-.33-2.53h0a1.86,1.86,0,0,0-2.53-.33l-.16.15A4.74,4.74,0,0,0,.75,16Z"/><path class="cls-1" d="M8.83,8.67a1.24,1.24,0,0,0,1.76,0h0a1.25,1.25,0,0,0,0-1.77h0a1.26,1.26,0,0,0-1.76,0h0a1.25,1.25,0,0,0,0,1.77Z"/></g></g></svg>