<svg xmlns="http://www.w3.org/2000/svg" viewBox="0 0 19.5 19.5"><defs><style>.cls-1{fill:none;stroke:#dadada;stroke-linecap:round;stroke-linejoin:round;stroke-width:1.5px;}</style></defs><g id="Layer_2" data-name="Layer 2"><g id="Layer_1-2" data-name="Layer 1"><path class="cls-1" d="M9.75,9.75h9m0,0-2.5-2.5m2.5,2.5-2.5,2.5m-3.5-6v-.1c0-2.25,0-3.37-.57-4.16a3,3,0,0,0-.67-.67C10.72.75,9.6.75,7.35.75H6.15C3.9.75,2.78.75,2,1.32A3,3,0,0,0,1.32,2C.75,2.78.75,3.9.75,6.15v7.2c0,2.25,0,3.37.57,4.16a3,3,0,0,0,.67.67c.79.57,1.91.57,4.16.57h1.2c2.25,0,3.37,0,4.16-.57a3,3,0,0,0,.67-.67c.57-.79.57-1.91.57-4.16v-.1"/></g></g></svg>