<svg xmlns="http://www.w3.org/2000/svg" viewBox="0 0 18.11 19.5"><defs><style>.cls-1{fill:none;stroke:#dadada;stroke-linecap:round;stroke-linejoin:round;stroke-width:1.5px;}</style></defs><g id="Layer_2" data-name="Layer 2"><g id="Layer_1-2" data-name="Layer 1"><path class="cls-1" d="M6.75,9.42a4.43,4.43,0,0,0-4.36,1.14C1,12,.77,16.41.75,17.81c0,.18,0,.27.05.34a.12.12,0,0,0,0,.05c.07.05.16.05.34.05,1.4,0,5.81-.21,7.24-1.64a4.39,4.39,0,0,0,1.14-4.36M6.75,9.42l.18.06.34.13a4.21,4.21,0,0,1,1.25.87,4.13,4.13,0,0,1,.87,1.26l.13.33a1.21,1.21,0,0,1,.05.18M6.75,9.42l7.66-7.11c.41-.38.61-.57.84-.63a1,1,0,0,1,.59,0c.23.07.42.27.81.66h0a2.47,2.47,0,0,1,.66.81.92.92,0,0,1,0,.59c-.06.23-.25.43-.63.84L9.57,12.25M5.75,2.5A2.12,2.12,0,0,0,4,4.25,2.12,2.12,0,0,0,2.25,2.5,2.12,2.12,0,0,0,4,.75,2.12,2.12,0,0,0,5.75,2.5ZM16.25,17a2.12,2.12,0,0,0-1.75,1.75A2.12,2.12,0,0,0,12.75,17a2.12,2.12,0,0,0,1.75-1.75A2.12,2.12,0,0,0,16.25,17Z"/></g></g></svg>