<svg xmlns="http://www.w3.org/2000/svg" viewBox="0 0 19.5 19.5"><defs><style>.cls-1{fill:none;stroke:#dadada;stroke-linecap:round;stroke-linejoin:round;stroke-width:1.5px;}</style></defs><g id="Layer_2" data-name="Layer 2"><g id="Layer_1-2" data-name="Layer 1"><path class="cls-1" d="M12.55,18.31a16.68,16.68,0,0,0,.2-2.56,16,16,0,0,0-.94-5.42M4.66,17.17a16,16,0,0,1,7.15-6.84m0,0a15.88,15.88,0,0,0-1.36-2.85m1.36,2.85A15.88,15.88,0,0,1,18.7,8.75M5.05,2.07a16.06,16.06,0,0,1,5.4,5.41m0,0A16,16,0,0,1,.8,10.75m9.65-3.27a16.14,16.14,0,0,0,4.39-5.15m3.91,7.42a9,9,0,1,1-9-9A9,9,0,0,1,18.75,9.75Z"/></g></g></svg>