<svg xmlns="http://www.w3.org/2000/svg" viewBox="0 0 19.5 19.5"><defs><style>.cls-1{fill:#dadada;}.cls-2{fill:none;stroke:#dadada;stroke-linecap:round;stroke-linejoin:round;stroke-width:1.5px;}</style></defs><g id="Layer_2" data-name="Layer 2"><g id="Layer_1-2" data-name="Layer 1"><path class="cls-1" d="M8.75,6.75a1.5,1.5,0,1,1-1.5-1.5A1.5,1.5,0,0,1,8.75,6.75Z"/><path class="cls-1" d="M13.75,6.75a1.5,1.5,0,1,1-1.5-1.5A1.5,1.5,0,0,1,13.75,6.75Z"/><path class="cls-2" d="M5.88,13.08a5,5,0,0,1,7.74,0c.29.36.44.54.39.78a.75.75,0,0,1-.1.2c-.15.19-.42.19-.95.19H6.54c-.53,0-.8,0-1-.19a.75.75,0,0,1-.1-.2C5.44,13.62,5.59,13.44,5.88,13.08Z"/><path class="cls-2" d="M9.75,18.75a9,9,0,1,0-9-9A9,9,0,0,0,9.75,18.75Z"/></g></g></svg>