<svg xmlns="http://www.w3.org/2000/svg" viewBox="0 0 15.5 19.5"><defs><style>.cls-1{fill:none;stroke:#dadada;stroke-linejoin:round;stroke-width:1.5px;}</style></defs><g id="Layer_2" data-name="Layer 2"><g id="Layer_1-2" data-name="Layer 1"><path class="cls-1" d="M8.75.75v.6c0,2.25,0,3.37.57,4.16a3,3,0,0,0,.67.67c.79.57,1.91.57,4.16.57h.6m0,1.24v5.36c0,2.25,0,3.37-.57,4.16a3,3,0,0,1-.67.67c-.79.57-1.91.57-4.16.57H6.15c-2.25,0-3.37,0-4.16-.57a3,3,0,0,1-.67-.67C.75,16.72.75,15.6.75,13.35V6.15c0-2.25,0-3.37.57-4.16A3,3,0,0,1,2,1.32C2.78.75,3.9.75,6.15.75H7.51A6.26,6.26,0,0,1,9.43.9a3.38,3.38,0,0,1,.44.18,6.29,6.29,0,0,1,1.46,1.25l1.84,1.84a6.29,6.29,0,0,1,1.25,1.46,3.38,3.38,0,0,1,.18.44A6.26,6.26,0,0,1,14.75,8Z"/></g></g></svg>