<svg xmlns="http://www.w3.org/2000/svg" viewBox="0 0 19.5 19.5"><defs><style>.cls-1{fill:none;stroke:#dadada;stroke-linejoin:round;stroke-width:1.5px;}</style></defs><g id="Layer_2" data-name="Layer 2"><g id="Layer_1-2" data-name="Layer 1"><path class="cls-1" d="M9.75,18.75a9,9,0,0,0,9-9A8.9,8.9,0,0,0,18,6.25M9.75,18.75a9,9,0,0,1-9-9,8.9,8.9,0,0,1,.71-3.5m8.29,12.5c2.41-1.61,4-5.88,4-9s-1.59-7.39-4-9m0,18c-2.41-1.61-4-5.88-4-9s1.59-7.39,4-9m0,0a9,9,0,0,0-8.29,5.5M9.75.75A9,9,0,0,1,18,6.25m-16.58,0A9,9,0,0,0,18,6.25"/></g></g></svg>