<svg xmlns="http://www.w3.org/2000/svg" viewBox="0 0 19.5 18"><defs><style>.cls-1{fill:none;stroke:#dadada;stroke-linecap:round;stroke-linejoin:round;stroke-width:1.5px;}</style></defs><g id="Layer_2" data-name="Layer 2"><g id="Layer_1-2" data-name="Layer 1"><path class="cls-1" d="M2.75,13.25h0A1.73,1.73,0,0,1,1,12a9,9,0,1,1,17.42,0,1.73,1.73,0,0,1-1.71,1.22h0m-2,4h0a2,2,0,0,0,2-2v-4a2,2,0,0,0-2-2h0a2,2,0,0,0-2,2v4A2,2,0,0,0,14.75,17.25Zm-10,0h0a2,2,0,0,0,2-2v-4a2,2,0,0,0-2-2h0a2,2,0,0,0-2,2v4A2,2,0,0,0,4.75,17.25Z"/></g></g></svg>