<svg xmlns="http://www.w3.org/2000/svg" viewBox="0 0 19.5 18.5"><defs><style>.cls-1{fill:none;stroke:#dadada;stroke-linejoin:round;stroke-width:1.5px;}</style></defs><g id="Layer_2" data-name="Layer 2"><g id="Layer_1-2" data-name="Layer 1"><path class="cls-1" d="M.75,13.25h0c0,.46,0,.7,0,.89a4,4,0,0,0,3.59,3.59c.19,0,.43,0,.89,0h9c.46,0,.7,0,.89,0a4,4,0,0,0,3.59-3.59c0-.19,0-.43,0-.89h0m-18,0V8c0-3,0-4.5.76-5.55a4.17,4.17,0,0,1,.89-.89C3.45.75,5,.75,8,.75h3.6c3,0,4.5,0,5.55.76A4.17,4.17,0,0,1,18,2.4c.76,1.05.76,2.55.76,5.55v5.3m-18,0L3,10.05C4,8.68,4.5,8,5.13,7.79a2,2,0,0,1,1.24,0c.63.2,1.12.89,2.09,2.26l.51.71a5.45,5.45,0,0,0,.76,1,2,2,0,0,0,2.28.18,5,5,0,0,0,.91-.81h0a4.7,4.7,0,0,1,.78-.7,2,2,0,0,1,2.1,0,4.7,4.7,0,0,1,.78.7l2.17,2.17m-3-7.75A1.75,1.75,0,1,1,14,3.75,1.75,1.75,0,0,1,15.75,5.5Z"/></g></g></svg>