<svg xmlns="http://www.w3.org/2000/svg" viewBox="0 0 19.5 17.5"><defs><style>.cls-1,.cls-2{fill:none;stroke:#dadada;stroke-linejoin:round;stroke-width:1.5px;}.cls-1{stroke-linecap:round;}</style></defs><g id="Layer_2" data-name="Layer 2"><g id="Layer_1-2" data-name="Layer 1"><path class="cls-1" d="M9.75,8.75h-6m6,0v-4m0,4h6m-12,0v4m0-4h-3m15,0v4m0-4h3"/><path class="cls-2" d="M5.4,16.75c.56,0,.84,0,1-.14l.17-.17c.14-.2.14-.48.14-1V14.1c0-.56,0-.84-.14-1l-.17-.17c-.2-.14-.48-.14-1-.14H2.1c-.56,0-.84,0-1,.14a1.37,1.37,0,0,0-.17.17c-.14.2-.14.48-.14,1v1.3c0,.56,0,.84.14,1l.17.17c.2.14.48.14,1,.14Z"/><path class="cls-2" d="M11.4,4.75c.56,0,.84,0,1-.14a1.37,1.37,0,0,0,.17-.17c.14-.2.14-.48.14-1V2.1c0-.56,0-.84-.14-1a1.37,1.37,0,0,0-.17-.17c-.2-.14-.48-.14-1-.14H8.1c-.56,0-.84,0-1,.14l-.17.17c-.14.2-.14.48-.14,1V3.4c0,.56,0,.84.14,1l.17.17c.2.14.48.14,1,.14Z"/><path class="cls-2" d="M17.4,16.75c.56,0,.84,0,1-.14l.17-.17c.14-.2.14-.48.14-1V14.1c0-.56,0-.84-.14-1l-.17-.17c-.2-.14-.48-.14-1-.14H14.1c-.56,0-.84,0-1,.14a1.37,1.37,0,0,0-.17.17c-.14.2-.14.48-.14,1v1.3c0,.56,0,.84.14,1a1.37,1.37,0,0,0,.17.17c.2.14.48.14,1,.14Z"/></g></g></svg>