<svg xmlns="http://www.w3.org/2000/svg" viewBox="0 0 19.5 9.5"><defs><style>.cls-1{fill:#dadada;}</style></defs><g id="Layer_2" data-name="Layer 2"><g id="Layer_1-2" data-name="Layer 1"><path class="cls-1" d="M18.75,5.88h0ZM16,8.75v0Zm-2.8-2.87h0Zm-6.8,0h0ZM3.55,8.75v0ZM.75,5.88h0Zm9-5.13v0Zm8,2.9-.54.52.06,0Zm-15.93,0,.48.58a.12.12,0,0,1,0-.05Zm11.89.54.61.44a.75.75,0,0,0,.1-.68.74.74,0,0,0-.49-.47Zm-7.86,0L5.6,3.48A.76.76,0,0,0,5.11,4a.75.75,0,0,0,.1.68ZM18,5.88A2.09,2.09,0,0,1,16,8V9.5A3.59,3.59,0,0,0,19.5,5.88ZM16,8a2.08,2.08,0,0,1-2-2.12H12.4A3.59,3.59,0,0,0,16,9.5ZM5.6,5.88A2.09,2.09,0,0,1,3.55,8V9.5A3.59,3.59,0,0,0,7.1,5.88ZM3.55,8a2.08,2.08,0,0,1-2-2.12H0A3.59,3.59,0,0,0,3.55,9.5Zm6.2-6.5a10.57,10.57,0,0,1,7.43,2.67l1.07-1A12,12,0,0,0,9.75,0Zm7.49,2.72A2.16,2.16,0,0,1,18,5.88h1.5a3.68,3.68,0,0,0-1.3-2.81ZM1.5,5.88a2.12,2.12,0,0,1,.77-1.65l-1-1.16A3.68,3.68,0,0,0,0,5.88Zm.82-1.7A10.53,10.53,0,0,1,9.75,1.5V0a12.05,12.05,0,0,0-8.5,3.12ZM13.9,5.88a2.21,2.21,0,0,1,.39-1.25l-1.22-.87a3.68,3.68,0,0,0-.67,2.12ZM9.75,4.37a12.88,12.88,0,0,1,3.71.54l.44-1.43a14.2,14.2,0,0,0-4.15-.61Zm-4.54.26A2.21,2.21,0,0,1,5.6,5.88H7.1a3.68,3.68,0,0,0-.67-2.12ZM6,4.91a12.88,12.88,0,0,1,3.71-.54V2.87a14.2,14.2,0,0,0-4.15.61Z"/></g></g></svg>