<svg xmlns="http://www.w3.org/2000/svg" viewBox="0 0 18.5 19.5"><defs><style>.cls-1{fill:none;stroke:#dadada;stroke-linejoin:round;stroke-width:1.5px;}</style></defs><g id="Layer_2" data-name="Layer 2"><g id="Layer_1-2" data-name="Layer 1"><path class="cls-1" d="M.75,11.25c3.71-.93,5.57-2.79,6.5-6.5.93,3.71,2.79,5.57,6.5,6.5-3.71.93-5.57,2.79-6.5,6.5C6.32,14,4.46,12.18.75,11.25Z"/><path class="cls-1" d="M10.75,4.25a4.25,4.25,0,0,0,3.5-3.5,4.25,4.25,0,0,0,3.5,3.5,4.25,4.25,0,0,0-3.5,3.5A4.25,4.25,0,0,0,10.75,4.25Z"/><path class="cls-1" d="M11.25,17A2.12,2.12,0,0,0,13,15.25,2.12,2.12,0,0,0,14.75,17,2.12,2.12,0,0,0,13,18.75,2.12,2.12,0,0,0,11.25,17Z"/></g></g></svg>